<?xml version="1.0" encoding="utf-8"?>
<svg xmlns="http://www.w3.org/2000/svg" xmlns:xlink="http://www.w3.org/1999/xlink" version= "1.1" width="720px" height="1358px" viewBox="0 0 720 1358">
<g id="layer1">
<g>
<g style="fill:rgb(0,0,0); fill-opacity:1.0; stroke-linejoin: miter">
<path d="M-117.00581,498.40326C-146.38588,498.95953,-173.75247,502.29758,-200.98668,508.70868C-217.04105,512.4706,-239.10922,519.22626,-252.64682,524.47174C-257.83932,526.48517,-268.72775,531.0684,-269.01917,531.33344C-269.25754,531.5982,-263.34976,542.3277,-262.502,543.1755C-262.07812,543.5728,-261.62778,543.41376,-256.22336,540.87067C-249.52078,537.71796,-241.49356,534.2475,-234.20811,531.38617C-228.88313,529.2933,-221.94214,526.8559,-221.80968,527.01495C-221.30634,527.6507,-216.88214,540.7115,-216.88214,541.61224C-216.88214,542.11554,-217.20006,542.30096,-220.45857,543.5727C-222.04816,544.20844,-222.04816,544.076,-220.43208,548.5002C-218.02127,555.0439,-217.12053,557.1899,-216.72311,557.1899C-216.53767,557.1899,-214.12688,556.47455,-211.39818,555.57367C-204.03328,553.2159,-191.76729,549.7719,-190.6811,549.7719C-190.28374,549.7719,-189.38301,552.81854,-186.15092,565.4025C-184.53491,571.7343,-183.07784,577.37714,-182.9453,577.9599C-182.7069,578.80743,-182.57443,578.94,-182.09758,578.86053C-181.77965,578.78107,-179.6603,578.30426,-177.40843,577.7745C-167.42084,575.4432,-147.20718,572.5555,-140.79605,572.5555C-138.6766,572.55554,-138.83553,572.2905,-138.5971,576.66187C-138.51762,578.25134,-138.3852,580.2382,-138.33215,581.033C-138.04074,584.60944,-137.93484,588.1595,-138.14676,588.29193C-138.33221,588.3979,-139.97473,588.5833,-147.60458,589.378C-154.49261,590.0933,-166.89099,592.13324,-173.56706,593.61676C-183.74017,595.8951,-197.8076,599.97504,-197.8076,600.63727C-197.8076,600.7962,-194.65501,609.5916,-193.17146,613.5391C-193.09198,613.7775,-192.40315,613.6451,-190.73418,613.0623C-177.46146,608.55865,-158.36044,604.69073,-142.57104,603.2867C-140.82256,603.1541,-138.78261,602.9687,-138.06738,602.88934C-132.71585,602.4123,-119.920044,602.2536,-112.63464,602.59784C-97.08362,603.3133,-81.42662,605.8035,-66.034515,610.01556C-61.080467,611.36664,-59.78238,611.84357,-59.78238,612.347C-59.78238,613.24774,-63.650246,625.9639,-64.100586,626.5468C-64.418564,626.97076,-65.05435,626.8647,-70.909134,625.40765C-85.53299,621.77826,-98.75267,619.6326,-110.51527,618.9703C-114.966,618.7319,-131.02036,618.73175,-135.28564,618.97015C-146.8628,619.6325,-162.46684,622.09625,-173.8585,625.0103C-186.0715,628.1629,-202.57617,634.3886,-213.59708,640.00494C-220.06119,643.29,-225.0947,646.1777,-225.28015,646.6811C-225.49213,647.1844,-224.90929,648.27057,-220.88248,654.9467C-219.08096,657.94037,-216.11388,662.815,-214.31235,665.80853C-211.0538,671.1866,-210.60341,672.11383,-210.86836,672.80255C-210.94785,672.9881,-213.1997,674.6307,-215.87538,676.4056C-232.00923,687.2409,-242.60626,696.6723,-253.892,710.1834C-263.95908,722.2375,-273.09897,736.91437,-279.37766,751.1673C-280.94073,754.7171,-281.1791,755.64435,-280.67578,756.0683C-280.49033,756.22736,-278.84784,756.9161,-277.01987,757.55194C-269.57553,760.2542,-253.17673,766.9301,-253.17673,767.2746C-253.17673,767.38055,-253.70657,768.9966,-254.3424,770.87756C-254.97821,772.75854,-255.50803,774.32166,-255.48154,774.32166C-255.37561,774.4011,-242.07643,777.60657,-241.8645,777.60657C-241.70554,777.60657,-241.14922,776.38794,-240.59286,774.9043C-236.61902,764.20135,-231.241,754.6905,-222.39258,742.769C-215.87537,733.97345,-207.45087,725.602,-198.4699,718.89935C-187.87299,711.03107,-175.97795,704.8055,-163.10266,700.4079C-155.28743,697.7055,-140.90205,694.8444,-132.42447,694.26154C-130.94087,694.1556,-129.5633,693.94366,-129.35138,693.7847C-129.05997,693.5728,-128.90097,692.2481,-128.66255,688.5921C-128.34464,683.1612,-128.31812,682.28705,-128.37115,680.8299L-128.39761,679.84955L-130.83492,679.84955C-135.07375,679.84955,-145.45876,681.22723,-153.03555,682.79034C-158.22804,683.8765,-165.83128,686.10187,-171.4477,688.19464C-191.21104,695.5595,-207.39783,705.89154,-222.0746,720.5153C-227.9294,726.3437,-230.31374,729.28436,-238.9238,741.2856C-241.41411,744.72955,-243.507,747.5643,-243.63945,747.6171C-244.0368,747.7762,-256.32925,740.1464,-256.75314,739.4577C-256.9386,739.1397,-256.06433,737.76215,-251.58713,731.37726C-243.0036,719.13776,-239.79803,715.24347,-232.22119,707.799C-221.12093,696.8842,-209.96764,688.804,-195.42328,681.14764C-192.42967,679.58466,-189.83339,678.1806,-189.64793,678.07465C-189.40952,677.9157,-190.38974,675.3459,-193.54231,668.0075C-198.49637,656.4567,-200.72177,650.91986,-200.72177,650.231C-200.72177,649.62164,-198.39041,648.509,-191.7144,645.9393C-181.93867,642.1774,-178.54765,641.06464,-169.99062,638.9189C-157.14183,635.6868,-146.04153,633.9383,-133.5636,633.1966C-128.95393,632.9051,-111.892845,633.01117,-109.32312,633.32904C-108.81975,633.4086,-106.83284,633.59406,-104.95189,633.75287C-92.52693,634.8127,-76.869934,638.0976,-64.2066,642.33636C-56.947723,644.74725,-43.198162,650.49615,-38.085125,653.2513C-36.866474,653.91364,-35.859783,654.41705,-35.833267,654.36395C-35.621304,654.0726,-29.819546,644.5352,-29.289658,643.6611C-28.759823,642.6807,-28.733307,642.4953,-29.051228,642.09796C-29.263195,641.85956,-31.673985,640.53485,-34.402695,639.1573C-38.85343,636.93207,-39.383263,636.5876,-39.383263,636.0047C-39.383263,635.2629,-38.456017,632.9051,-36.389603,628.32196C-34.058254,623.1823,-33.475445,622.09625,-32.99859,622.09625C-32.41572,622.09625,-30.42881,622.9969,-25.262848,625.5666C-4.837215,635.7928,12.992182,648.5621,28.993595,664.4841C42.42512,677.86273,51.220642,688.8309,61.208275,704.7526C70.71902,719.8797,79.276024,738.7424,84.20361,755.40607C84.57451,756.7043,84.94535,757.7375,85.024796,757.7375C85.15732,757.7375,98.05907,754.5848,98.56244,754.42584C99.41014,754.1608,92.62812,735.2453,87.54161,723.7476C79.06414,704.5937,65.23509,683.0817,50.929188,666.736C45.12738,660.11285,32.728943,647.89984,26.211805,642.363C19.297306,636.5081,-1.3137206,622.12274,-7.9897375,618.46674C-21.077055,611.3138,-35.939266,604.5053,-45.97983,601.0612C-54.033546,598.2795,-67.12075,594.597,-73.82329,593.19293C-79.83707,591.9478,-91.62625,590.14655,-98.99109,589.35175C-99.65339,589.29877,-100.66013,589.1927,-101.24294,589.11334C-104.87238,588.6895,-111.78688,588.1861,-113.98576,588.1861C-116.66144,588.1861,-117.72116,587.9742,-117.933075,587.4178C-118.039085,587.17926,-118.11847,583.7884,-118.092,579.8409C-118.06556,573.9332,-117.98607,572.63513,-117.66819,572.29065C-117.40325,572.0521,-116.50252,571.8667,-115.09836,571.76086L-112.89953,571.6283L-112.74054,570.3037C-112.369644,567.522,-111.892784,557.98474,-112.07823,557.7993C-112.34318,557.5344,-131.92102,557.5344,-136.58366,557.7992C-139.92177,557.9846,-147.65753,558.59393,-150.9161,558.9119C-152.45268,559.07086,-158.38696,559.83905,-162.49327,560.39545C-163.84439,560.5809,-165.03651,560.66046,-165.116,560.5544C-165.24841,560.4218,-170.22903,531.70416,-170.25551,530.85626C-170.25551,530.5384,-171.68613,530.7769,-178.78609,532.3134C-185.03821,533.6646,-189.33003,534.4858,-191.3964,534.7773C-192.48264,534.9362,-192.53561,534.9096,-192.90651,534.08844C-193.46284,532.76385,-196.61543,519.862,-196.40347,519.6766C-196.19156,519.46466,-194.46954,519.0407,-187.52855,517.58356C-171.68613,514.2192,-155.36685,512.02045,-140.05417,511.22556C-138.22618,511.11963,-136.13332,510.9871,-135.41798,510.96063C-132.05354,510.74872,-112.873,510.85468,-107.99838,511.09317C-99.04399,511.54346,-85.34744,512.70905,-84.28772,513.1065C-83.996315,513.2389,-83.916824,513.5039,-84.02277,514.11316C-84.10227,514.56366,-84.340706,516.4181,-84.55267,518.2461C-84.791046,520.074,-85.02953,521.849,-85.08251,522.22C-85.13549,522.5908,-85.32094,523.9419,-85.47987,525.2665C-85.9833,528.8695,-85.956726,528.843,-87.91718,528.843C-88.84443,528.843,-90.354546,528.71045,-91.308205,528.57825C-92.7918,528.3662,-99.44137,527.8098,-105.34919,527.4125C-106.302956,527.333,-112.07824,527.20056,-118.19795,527.0945C-129.53673,526.90894,-137.51091,527.121,-147.65752,527.9157C-152.47916,528.2867,-153.83028,528.4986,-153.83028,528.81647C-153.80376,530.48553,-152.24069,542.14215,-152.00232,542.40717C-151.9228,542.513,-149.51198,542.43365,-146.6773,542.22174C-130.41098,541.00305,-113.4824,541.0032,-99.52086,542.2483C-86.248116,543.4138,-67.571014,546.3544,-66.48483,547.46704C-66.24641,547.70557,-66.27292,548.4209,-66.67029,550.6726C-67.25316,553.9313,-68.33934,559.0443,-68.94861,561.0842C-69.319565,562.4619,-69.34602,562.4883,-70.35277,562.4883C-70.90906,562.4883,-73.319855,562.1438,-75.70424,561.6935C-80.44638,560.8458,-86.08926,559.9452,-88.39403,559.6802C-89.18886,559.6007,-91.043304,559.3623,-92.5004,559.177C-93.95748,558.99146,-95.22911,558.8856,-95.30861,558.9385C-95.38805,558.99146,-95.547035,559.89233,-95.65299,560.9519C-96.500755,570.48926,-96.58025,572.7676,-96.05037,573.11194C-95.838455,573.2444,-95.202614,573.35034,-94.619804,573.35034C-92.4739,573.35034,-74.0352,576.5028,-67.30608,578.01294C-56.73568,580.37067,-42.4828,584.82135,-31.568012,589.19257C-18.295303,594.4913,-2.2938821,602.6242,8.832869,609.6978C16.966082,614.8903,28.755074,623.5004,35.855026,629.43463C45.975147,637.9123,59.353745,651.55585,69.31493,663.55695C70.77202,665.30536,71.99067,666.7624,72.04365,666.8155C72.20258,667.0274,73.71264,665.91473,82.00478,659.3975C86.85283,655.5828,93.74087,650.20465,97.31739,647.4759C104.89414,641.62115,107.092964,639.81964,107.092964,639.3957C107.14605,638.707,99.4102,629.2226,93.44955,622.62604C86.50847,614.9699,72.3616,601.4322,63.936935,594.43805C58.453053,589.8549,42.08079,577.8805,34.980843,573.24426C32.835052,571.8667,31.007074,570.5155,30.90106,570.3036C30.742128,569.8268,31.377974,568.58154,34.13315,563.94556C36.596916,559.8126,38.398384,557.031,38.716362,556.8191C39.113724,556.58057,49.5252,563.0978,55.459526,567.33655C66.3479,575.12524,74.90493,582.1722,88.57494,594.64996C90.111465,596.02765,91.46259,597.1934,91.56855,597.1934C91.70102,597.1934,94.45619,594.6235,97.71479,591.4709C102.403946,586.94073,103.596085,585.64264,103.41069,585.29816C102.98681,584.477,92.65479,574.03906,88.57502,570.25073L84.46866,566.4623L83.11759,567.9724C81.84591,569.4031,81.7399,569.45593,81.21007,569.1116C80.91872,568.89966,78.19,566.78015,75.14338,564.3959C62.08257,554.19617,52.06847,547.52026,35.590244,538.0624C29.20563,534.3799,22.45006,530.88293,21.999666,531.04175C21.867138,531.06836,18.820616,537.0027,15.217626,544.2085C9.150871,556.4215,8.647499,557.3224,7.98514,557.40186C7.481768,557.4547,5.600866,556.713,2.2099085,555.0969C-6.665045,550.85815,-21.129892,544.7384,-22.269104,544.7384C-22.851917,544.7384,-23.434784,545.9835,-25.421642,551.4939C-27.832489,558.19653,-27.77951,557.6138,-25.951534,558.40845C-25.103783,558.8059,-22.640015,559.8125,-20.494114,560.6604C-6.2676926,566.3562,14.740704,577.0857,26.317898,584.58307C33.39134,589.1397,44.730057,597.2729,50.425842,601.80316C60.757935,610.0423,80.62715,628.90485,80.62715,630.4943C80.62715,630.9976,79.51451,632.0839,73.60676,637.51495C71.56675,639.3693,69.68579,640.9058,69.42096,640.9058C69.10298,640.9058,66.29478,638.3361,62.506405,634.60077C50.319946,622.5997,42.84909,616.2149,30.821543,607.49884C18.555527,598.5975,11.826476,594.4117,-1.3666829,587.47064C-14.665796,580.4766,-25.448227,575.86694,-40.151447,570.93945C-44.019375,569.64124,-47.22494,568.52856,-47.27786,568.4492C-47.330894,568.396,-45.714825,562.88574,-43.67493,556.2096C-38.53537,539.43994,-38.53537,539.4133,-38.6679,539.2545C-38.932785,538.9895,-43.30403,537.79736,-51.17224,535.8369C-61.68979,533.21423,-61.63675,533.21423,-61.63675,532.3135C-61.63675,531.30676,-58.855057,517.79553,-58.5636,517.4778C-58.537132,517.4512,-55.887917,518.00757,-52.70881,518.77576C-35.70069,522.8291,-20.626574,527.62427,-4.9695873,534.0089C-1.8435144,535.254,0.85873604,536.26086,1.0441856,536.2079C1.3886242,536.1284,6.978523,524.4452,6.978525,523.83594C6.978525,523.0675,-11.036274,516.1001,-23.461235,512.0468C-40.813732,506.37744,-60.630043,501.82065,-77.66461,499.5952C-85.58587,498.53568,-100.34209,498.1118,-117.00581,498.40326 Z"/>
</g>
<g style="fill:rgb(0,0,0); fill-opacity:1.0; stroke-linejoin: miter">
<path d="M-285.4974,539.9963C-288.2791,541.5859,-296.51822,546.6988,-300.99545,549.63947C-310.37375,555.7858,-320.78525,563.54803,-332.52136,573.19135C-334.40234,574.75433,-336.09784,575.9466,-336.28326,575.8935C-336.6542,575.7347,-342.456,581.40393,-347.25113,586.6493C-357.87457,598.2002,-368.81592,613.2212,-376.57806,626.91785L-377.45233,628.40137L-373.7434,631.05066L-370.06097,633.67346L-365.29236,627.68616C-352.31113,611.4198,-339.38287,598.04114,-323.38147,584.3446C-315.6987,577.7746,-305.87006,570.1713,-305.04877,570.1713C-304.28052,570.1713,-295.8294,581.563,-295.8294,582.62256C-295.8294,582.8611,-297.15405,584.0532,-298.79657,585.29834C-302.8234,588.292,-309.36703,593.6699,-316.04306,599.3922C-321.55353,604.1344,-321.55353,604.1344,-321.0766,604.7173C-319.67255,606.30676,-314.42703,612.0292,-309.57895,617.1952C-303.32675,623.87134,-301.12784,626.3086,-301.12784,626.6001C-301.12784,626.70593,-304.201,629.88513,-307.9629,633.6471C-315.24823,640.9855,-321.6859,648.00586,-325.39487,652.72144C-330.24298,658.8677,-339.2504,671.5311,-345.74103,681.3331C-356.12607,697.0432,-366.59055,719.9592,-373.53156,742.31885C-374.1938,744.4116,-374.37924,745.33887,-374.1673,745.41833C-373.50507,745.65686,-360.65625,748.73,-360.60327,748.6769C-360.57678,748.624,-360.23236,747.5112,-359.835,746.21326C-354.13916,727.2976,-342.72092,702.50073,-332.7333,687.4C-324.7326,675.29297,-314.24155,661.27856,-308.14835,654.54944C-293.657,638.5216,-278.07944,624.95734,-261.38928,613.91C-252.2229,607.81683,-246.02371,604.2138,-245.09648,604.39935C-244.27522,604.5317,-237.0693,616.9566,-237.36072,617.6984C-237.44017,617.884,-239.5066,619.26154,-241.97041,620.77167C-255.77286,629.2227,-265.57504,636.3757,-276.75488,646.1777C-284.3317,652.80084,-295.43207,664.2722,-301.39285,671.6371C-305.3137,676.4852,-317.57968,693.28125,-318.6394,695.2418C-318.87778,695.7186,-316.7584,697.2023,-305.63168,704.2228C-302.79694,706.0242,-298.87607,708.541,-296.96863,709.8391C-293.763,711.9851,-293.4716,712.2234,-293.68356,712.7798C-293.816,713.09766,-295.32608,715.7999,-297.02158,718.7936C-301.57825,726.68823,-306.55884,736.78186,-309.0226,742.9547C-311.48636,749.2069,-315.06287,759.53894,-314.82446,759.77734C-314.7185,759.85693,-311.59238,760.6781,-307.857,761.57886C-303.3268,762.6914,-301.04846,763.14197,-300.99548,762.92993C-300.916,762.7711,-300.20068,760.59875,-299.3794,758.13477C-295.24658,745.70984,-289.7361,734.05316,-282.2653,721.9991C-269.33704,701.1496,-253.9714,684.1148,-236.27454,671.05414C-233.8902,669.2791,-232.00923,667.7161,-232.06224,667.5306C-232.14171,667.37164,-233.36037,665.33185,-234.81741,663.0004C-236.24803,660.6955,-237.8376,658.0994,-238.34097,657.2515C-238.84428,656.43036,-239.3212,655.7415,-239.42715,655.7415C-240.03645,655.7415,-247.00394,661.19904,-253.44162,666.7359C-263.40274,675.26654,-271.13852,683.26715,-281.09967,695.29474C-282.39783,696.85785,-283.56345,698.12946,-283.69592,698.12946C-284.01382,698.12946,-296.62427,688.59216,-296.62427,688.35376C-296.62427,688.08887,-291.56418,681.91614,-287.8287,677.6508C-274.2911,662.12616,-259.19046,648.64166,-244.16927,638.601C-236.24799,633.3288,-222.36597,625.8316,-212.16644,621.30133C-208.82846,619.8178,-208.40453,619.5794,-208.56352,619.1025C-208.64302,618.8111,-209.86162,615.81744,-211.23926,612.4528C-216.16678,600.42523,-219.18689,592.82196,-219.37234,592.08014C-219.53131,591.3649,-219.45181,591.3118,-217.88881,590.5966C-215.63695,589.5633,-206.15262,586.0135,-201.96681,584.6093C-200.0859,583.97345,-198.49629,583.4173,-198.44337,583.3377C-198.3109,583.2319,-201.91394,569.95917,-202.12585,569.74725C-202.28479,569.5618,-212.69633,573.16473,-217.54442,575.0457C-229.06854,579.57587,-244.16927,586.67584,-252.75278,591.60345C-260.11765,595.84235,-272.64856,604.0815,-279.77502,609.35333L-283.1925,611.8702L-284.41116,610.5456C-285.89474,608.90314,-292.51788,600.16064,-292.7298,599.52466C-292.8358,599.2068,-292.65033,598.80945,-292.17346,598.3856C-290.45145,596.7695,-274.42355,585.7487,-268.3038,581.98676C-262.2901,578.278,-248.9379,571.1248,-241.785,567.7868C-239.53313,566.7271,-236.5925,565.37604,-235.26782,564.7402C-233.94322,564.1308,-232.77754,563.46844,-232.67159,563.3095C-232.43314,562.93854,-232.67159,562.19684,-235.10887,555.7857C-236.19505,552.8715,-237.2548,550.46075,-237.4667,550.38116C-237.67868,550.3017,-239.05629,550.75214,-240.53984,551.388C-244.96408,553.269,-261.04492,561.40216,-267.9859,565.2436C-271.56244,567.2305,-274.55606,568.84674,-274.66202,568.84674C-275.1389,568.84674,-280.04,560.89886,-282.10635,556.8455C-282.74216,555.5738,-282.82166,555.20306,-282.53024,555.01764C-282.3448,554.8851,-281.07318,554.1169,-279.72205,553.32196C-278.3709,552.5007,-277.17874,551.6794,-277.1258,551.49396C-277.01984,551.2026,-280.5963,544.288,-282.23886,541.61237C-283.21912,539.9698,-283.77542,539.1751,-283.90787,539.1751C-283.98737,539.1751,-284.70264,539.54596,-285.4974,539.9963 Z"/>
</g>
<g style="fill:rgb(0,0,0); fill-opacity:1.0; stroke-linejoin: miter">
<path d="M108.046814,604.1873L103.01321,609.03534L105.39754,611.6318C118.829155,626.2026,134.27423,647.55536,145.13603,666.4711C149.77222,674.5512,155.8125,686.73785,159.44193,695.4008C160.02473,696.7519,160.5281,697.8117,160.58109,697.7586C160.74002,697.5998,158.09087,687.0557,156.63379,681.9692C150.8849,662.04694,141.53316,640.4555,131.01566,622.7586C127.70414,617.195,123.2534,610.413,121.74335,608.585C118.32582,604.5053,113.63665,599.3127,113.37177,599.3127C113.212776,599.3127,110.8285,601.51154,108.046814,604.1873 Z"/>
</g>
<g style="fill:rgb(0,0,0); fill-opacity:1.0; stroke-linejoin: miter">
<path d="M-336.5747,619.10266C-344.15146,627.2092,-352.629,637.5149,-359.6495,647.1316C-373.47858,666.0737,-383.81055,684.67126,-394.03665,708.9912C-396.07657,713.7864,-396.12955,713.8922,-396.9508,713.9718C-397.40118,714.0248,-398.64627,713.75977,-399.73248,713.3889C-400.7922,713.04456,-401.69293,712.77966,-401.71942,712.806C-401.90485,712.9916,-402.62018,727.2975,-402.67316,732.27795L-402.72614,738.4773L-396.50043,740.0139C-393.0829,740.8351,-390.24823,741.49744,-390.24823,741.49744C-390.22174,741.47107,-389.87732,740.3053,-389.47998,738.92773C-386.98965,730.3972,-381.26727,715.005,-376.4722,704.0902C-374.64423,699.9044,-369.3458,689.38684,-366.7495,684.75073C-356.1526,665.8617,-342.77386,647.18445,-329.1038,632.1898C-327.19635,630.09705,-325.10345,627.7921,-324.46762,627.0768L-323.30194,625.7522L-328.17657,620.87756C-330.85233,618.2018,-333.18362,616.00305,-333.36908,616.00305C-333.52805,616.00305,-334.98514,617.407,-336.5747,619.10266 Z"/>
</g>
<g style="fill:rgb(0,0,0); fill-opacity:1.0; stroke-linejoin: miter">
<path d="M-385.08215,644.032C-385.53253,644.8533,-388.02286,651.2378,-389.47995,655.2118C-391.33438,660.3777,-394.77844,671.584,-394.5665,671.7959C-394.53998,671.8489,-393.61276,670.2859,-392.55304,668.3784C-389.9038,663.6362,-384.55234,654.78796,-381.85013,650.57556L-379.5982,647.1315L-382.03555,645.35657C-383.36017,644.3762,-384.52582,643.58154,-384.63177,643.55505C-384.7378,643.55505,-384.9497,643.76697,-385.08215,644.032 Z"/>
</g>
<g style="fill:rgb(0,0,0); fill-opacity:1.0; stroke-linejoin: miter">
<path d="M-132.37148,649.2774C-144.61093,650.1517,-155.04893,651.76764,-165.43391,654.41693C-169.7787,655.5296,-179.1835,658.28485,-179.50142,658.54974C-179.58086,658.6292,-176.48125,666.57684,-174.73276,670.76276L-174.2559,671.8488L-170.46747,670.68317C-159.23473,667.2127,-148.10796,665.04034,-135.81549,663.9012C-131.39127,663.50385,-113.08505,663.4775,-111.839935,663.87494C-111.1246,664.08685,-111.045105,664.2458,-110.96567,665.4379C-110.88617,666.5241,-111.38955,676.2734,-111.83994,682.55194C-112.104774,686.1551,-112.21079,688.00946,-112.39624,691.13556L-112.555176,694.34125L-110.0914,694.5267C-100.13027,695.29486,-84.234856,699.4277,-72.869675,704.2227C-62.908478,708.4084,-47.781338,718.15765,-39.250824,725.867C-33.52846,731.0595,-26.190083,739.06024,-26.481491,739.82855C-26.64048,740.2524,-30.693802,743.7758,-34.853077,747.11395C-37.97921,749.6042,-38.80044,749.94855,-39.436287,749.0213C-40.46949,747.5643,-46.93365,740.7823,-49.26494,738.7159C-52.841404,735.5368,-57.00067,732.331,-56.62983,733.0463C-56.47084,733.3377,-56.205963,733.6822,-56.046967,733.76166C-55.914497,733.8676,-54.907806,735.03326,-53.821632,736.38446C-46.827694,745.18,-42.323933,756.46576,-41.184834,767.9899C-40.946354,770.2682,-40.7609,771.2484,-40.522476,771.2484C-40.204556,771.2484,-0.46602434,753.57794,-0.17461966,753.3132C0.037403103,753.12775,-2.214505,748.94196,-4.3869243,745.4715C-8.254788,739.29865,-12.758499,733.31134,-18.58676,726.6088C-30.799744,712.5943,-44.4433,702.1828,-61.371902,693.9172C-67.70359,690.84406,-73.18754,688.6452,-81.241196,685.99603C-89.90424,683.1347,-89.718796,683.2408,-89.718796,682.1281C-89.718796,681.1744,-87.62586,672.4849,-86.751595,669.78265C-86.46019,668.8289,-86.08934,667.98114,-85.93035,667.9017C-85.58597,667.66327,-81.93001,668.6965,-75.810295,670.70966C-56.78875,677.04144,-44.549244,683.3732,-28.256474,695.3477C-25.713219,697.2288,-23.249456,698.97723,-22.825579,699.21576L-22.030745,699.69257L-19.778889,696.9903C-12.599491,688.4333,-2.8502653,677.4654,-2.4264429,677.4654C-1.234249,677.4654,9.945533,688.32733,16.67458,696.0102C25.0197,705.5473,31.881104,714.7138,31.881104,716.3033C31.881102,716.91266,30.424023,718.0253,23.72154,722.476C21.496147,723.95953,19.456255,725.1517,19.217829,725.0988C18.979403,725.0457,18.237658,724.2775,17.575296,723.37665C16.91294,722.5025,15.164513,720.118,13.707434,718.1047C9.627543,712.5413,-0.7574061,700.3549,-1.6581924,700.0634C-1.817126,700.01044,-4.0689845,702.1828,-6.6387053,704.9379L-11.301408,709.892L-10.850961,710.5544C-10.612588,710.92523,-8.970059,712.9122,-7.195058,714.9521C4.4351144,728.4102,11.932422,739.961,18.528997,754.6114C28.172192,776.0702,33.205776,801.0259,32.56981,824.4981C32.278458,835.7044,31.37772,843.3077,29.231815,853.26886C28.649006,855.9976,28.172092,858.3819,28.172092,858.54095C28.172092,859.07074,29.602715,859.54755,39.19295,862.1174C56.280487,866.727,56.78386,866.88605,56.78385,867.54816C56.78385,868.34296,53.949184,878.01263,52.28008,882.914C48.226818,894.7824,40.62343,909.777,32.51684,921.88416C28.516497,927.87146,20.383291,938.7599,18.820309,940.2433L18.15795,940.8263L15.561715,938.73315C11.905813,935.7926,6.925193,931.47437,6.6337886,930.9708C6.4218783,930.6531,7.428567,929.08997,11.269919,923.68555C21.999372,908.6644,23.747915,905.93567,27.827696,897.9879C32.039944,889.7753,37.100014,878.30414,36.808662,877.6153C36.676193,877.2443,34.2654,876.3703,29.099335,874.7541C23.40349,872.9526,23.800852,872.9792,23.059107,874.4892C22.688204,875.17804,21.602024,877.6683,20.595226,879.9997C16.859882,888.7952,12.27673,897.1931,6.7663283,905.2998C-7.7250366,926.6792,-22.136904,940.5348,-42.827423,952.9861C-49.900856,957.25146,-62.352264,963.3445,-63.27951,963.0001C-63.6239,962.8677,-68.9754,950.3103,-69.240295,948.9856C-69.37277,948.34985,-69.187325,948.2439,-65.29294,946.49536C-58.457886,943.47534,-52.417656,940.05786,-44.152027,934.574C-36.65472,929.5934,-30.164036,924.18896,-23.885378,917.7246C-6.241484,899.5244,6.3954434,877.2443,12.117761,854.30194C15.641195,840.1285,16.727383,830.9357,16.436039,817.2127C16.118181,802.0326,13.945826,789.0249,9.495154,775.61975C7.640605,770.0298,7.0048194,768.3342,6.6868973,768.3342C6.183525,768.3342,-5.579016,773.3943,-5.9499164,773.76526C-6.0029497,773.81824,-5.3141294,776.07007,-4.413399,778.7988C-1.6846912,787.1968,0.38165468,796.3367,1.2824401,803.96643C1.3619326,804.68176,1.5473831,806.24475,1.706372,807.4105C2.1301894,810.9605,2.3155775,823.9417,1.9711919,828.47186C1.6002909,833.45245,0.8584927,838.64496,-0.20123,843.97003C-4.069109,863.389,-10.851085,878.25104,-23.487955,895.1003C-28.839478,902.2532,-32.839817,906.75684,-38.16477,911.6315C-47.225174,919.9501,-56.232536,926.0697,-67.332886,931.5537C-92.209206,943.79346,-118.03922,947.47595,-145.61774,942.76013C-152.47931,941.5945,-163.36763,938.4154,-171.31537,935.2361C-175.05075,933.75256,-181.93874,930.3616,-185.35626,928.32153L-188.1115,926.6791L-189.1447,927.8447C-190.91965,929.88477,-196.88043,937.67346,-196.88043,937.93835C-196.88043,938.6272,-184.77347,944.95886,-177.96494,947.82007C-159.4468,955.66174,-139.78941,959.4503,-120.3176,958.9735C-112.26388,958.7616,-101.61394,957.59595,-95.01741,956.1654C-87.89088,954.65515,-88.34127,954.7081,-87.99689,955.18494C-87.625984,955.71484,-86.48683,959.7948,-82.96335,973.22644C-81.4533,979.0282,-80.12863,983.84973,-80.07571,983.9292C-79.70482,984.30005,-67.33289,980.3262,-60.895187,977.78284C-42.006195,970.28564,-26.985003,961.11914,-9.844482,946.60156C-8.042967,945.0648,-7.380663,944.74695,-6.771336,945.0648C-6.4269547,945.224,1.2823178,953.4629,3.1102397,955.5823C3.6136622,956.1387,3.5871463,956.16516,2.6334388,957.3308C2.1036086,957.9667,1.679731,958.5759,1.679731,958.6555C1.679731,958.9203,8.700179,967.87476,9.441919,968.5636C9.918831,969.0139,10.289728,969.1465,10.687088,969.0139C11.428887,968.7755,21.3371,959.053,25.125418,954.8406C53.23389,923.47375,70.215485,887.179,75.83192,846.4869C77.10355,837.42645,77.50091,831.14764,77.500916,820.52435C77.47448,799.7543,74.8783,781.2097,69.31489,762.24115C67.22202,755.0351,63.380566,744.49115,62.85079,744.49115C62.50635,744.49115,60.333992,745.3654,55.14145,747.59076C49.657516,749.9223,49.869484,749.6043,51.247116,753.2868C57.47279,769.89734,61.181656,786.77295,62.744736,805.6885C63.380516,813.1329,63.301014,827.78326,62.612186,835.09515C62.4532,836.7641,62.267754,838.91,62.188316,839.8637C61.92337,842.566,61.10213,848.07635,60.916676,848.2618C60.51932,848.6591,45.974983,846.3809,45.49813,845.8776C45.286163,845.6391,45.36572,844.1026,45.81605,840.1286C46.160435,837.16156,46.557796,832.8697,46.716785,830.6445C47.00826,826.51154,47.087753,813.3449,46.849327,810.1923C46.31951,803.5692,46.081024,800.9995,45.498215,796.6813C43.484795,781.60706,39.21957,766.1091,33.152775,751.9356C30.741987,746.2662,29.496815,743.0606,29.496815,742.42487C29.496815,741.842,31.139347,741.0207,45.736732,734.31805C50.98213,731.9338,55.459373,729.7613,55.72426,729.523C56.360107,728.94025,56.22763,728.5164,53.49893,723.6418C49.737083,716.88617,43.27292,706.6335,39.11359,700.85834C30.424038,688.6983,17.098412,674.5777,4.3291326,663.9543C-1.9230611,658.76166,-13.129307,650.70807,-14.109533,650.70807C-14.321501,650.70807,-15.142794,651.7413,-15.990492,653.0129C-18.639767,657.1458,-26.004612,669.01434,-27.991577,672.4318C-29.051247,674.2598,-30.004955,675.8228,-30.110966,675.95526C-30.190403,676.0612,-32.46878,674.89557,-35.17097,673.3591C-46.986546,666.57697,-58.590256,661.2784,-69.98195,657.46344C-80.76432,653.83417,-93.32172,651.238,-107.07127,649.78094C-110.859695,649.3571,-128.68906,649.0125,-132.37148,649.2774 Z"/>
</g>
<g style="fill:rgb(0,0,0); fill-opacity:1.0; stroke-linejoin: miter">
<path d="M114.53735,655.2382C109.318405,658.9737,106.32469,661.305,106.32469,661.64935C106.32469,661.8348,106.881035,662.762,107.543396,663.71576C110.82845,668.3255,117.901955,680.3001,122.723465,689.3339C126.43245,696.32794,133.08199,710.4749,133.08199,711.42865C133.08199,711.7996,120.60411,717.33636,119.067535,717.62787C118.37871,717.7868,118.29927,717.68085,115.72949,712.1174C109.583275,698.8183,105.13261,690.4201,98.43001,679.5848C94.88002,673.80927,93.3435,671.6369,92.84013,671.637C92.60171,671.637,91.93935,671.955,91.35654,672.35236C89.07827,673.8625,81.686844,679.37286,81.686844,679.5583C81.686844,679.6641,82.56112,681.1744,83.6473,682.8963C90.80023,694.3941,93.13158,698.5003,97.555725,707.3488C103.83448,719.9062,108.52353,731.2979,112.206055,742.9017C114.77577,751.00824,118.51116,764.73126,118.51116,766.0295C118.51116,766.2415,118.03437,766.5063,117.39846,766.66534C116.76273,766.79767,110.3515,768.3342,103.14564,770.0563C95.93968,771.75183,89.87294,773.31506,89.68749,773.5005C89.29013,773.87134,89.47558,775.6727,90.561745,781.8456C91.83337,789.0779,92.548706,794.5353,93.07854,801.1848C93.23742,803.14514,93.42286,805.3441,93.50235,806.0858C93.55533,806.80115,93.68778,811.2784,93.767166,816.02045C93.926155,823.7033,93.68771,831.7304,93.18435,837.1879C91.38287,856.50104,88.521614,870.33,82.61385,888.3979C79.063965,899.23303,77.02397,904.2401,72.14946,914.1748C58.18792,942.5482,37.576878,968.66956,14.396017,987.3202C4.6468487,995.162,-7.433609,1003.4011,-16.732492,1008.4877C-17.739178,1009.04407,-18.613451,1009.52075,-18.66643,1009.574C-18.719406,1009.60034,-17.818674,1011.5873,-16.706036,1014.02466C-14.930979,1017.8661,-14.613113,1018.3695,-14.242214,1018.0781C-14.030247,1017.91907,-10.851144,1015.13745,-7.19524,1011.9053C11.216966,995.6918,28.78136,981.651,44.54435,970.55054C48.995033,967.3982,54.74391,963.31824,57.287174,961.4901L61.94988,958.1521L64.38713,954.7081C77.15642,936.8258,86.13732,920.2682,92.945946,901.98816C101.42343,879.23126,105.821144,859.28265,107.543236,835.62494C108.09959,827.96857,108.179085,811.5433,107.7023,805.02625C107.14596,797.5554,107.06641,796.681,106.61607,792.8661C106.29815,790.3495,106.245224,789.1837,106.43062,789.1306C106.72202,789.0248,117.5839,787.5941,120.41862,787.24976C121.87571,787.0908,121.95515,787.1173,122.193565,787.7267C122.45852,788.442,122.749916,790.7202,123.571205,798.8004C124.60438,809.106,124.52482,830.61786,123.412125,842.11566C123.17375,844.2879,122.93521,846.9902,122.8293,848.1027L122.67038,850.14276L124.10094,850.43414C125.63744,850.752,136.60538,852.3151,136.68483,852.23566C136.84375,852.0767,137.87703,841.4797,138.11545,837.7443C138.59225,830.35284,138.72473,815.5966,138.40688,808.33777C137.4532,786.667,134.14168,766.8243,127.8895,745.02094C126.53837,740.27875,126.24699,739.0336,126.51186,738.76874C126.69732,738.6098,127.81002,738.1064,128.9757,737.68256C131.62492,736.67584,140.42032,733.8941,140.89723,733.8941C141.61256,733.8941,143.83788,741.04706,146.69907,752.6508C150.59338,768.36084,153.64,787.77966,154.43475,802.1122C154.54077,803.8606,154.64677,805.4767,154.6997,805.6886C154.72623,805.9005,154.77914,806.298,154.77914,806.56287C154.8056,807.0133,155.12358,807.0397,159.62729,806.9602L164.47545,806.88074L164.79326,804.364C166.11797,793.5021,167.23065,775.7258,167.25711,764.89044L167.25711,762.3736L165.61464,762.3736L163.94559,762.3736L163.60121,761.3139C163.41576,760.731,162.54149,757.26044,161.69368,753.63104C157.37555,735.16595,151.3352,717.0981,143.54651,699.45404C140.8178,693.20184,135.5194,682.5518,132.52568,677.2005C129.66449,672.03436,119.35903,655.2912,118.11388,653.7282L117.583984,653.06586L114.53735,655.2382 Z"/>
</g>
<g style="fill:rgb(0,0,0); fill-opacity:1.0; stroke-linejoin: miter">
<path d="M-327.27588,710.3689C-328.41504,711.79956,-332.91873,721.2838,-336.17728,729.1256C-339.3034,736.6759,-344.57538,751.1937,-344.57538,752.3064C-344.57538,752.5448,-342.403,753.18066,-337.87283,754.26685C-334.21686,755.1676,-331.06424,755.88293,-330.93182,755.88293C-330.77283,755.88293,-330.03107,753.8695,-329.26276,751.4321C-326.24265,742.05396,-322.42773,732.5962,-317.79153,723.05896C-316.36102,720.0917,-315.16885,717.52185,-315.16885,717.3364C-315.16885,717.098,-326.50757,710.051,-326.90494,710.051C-326.98444,710.051,-327.1434,710.2101,-327.27588,710.3689 Z"/>
</g>
<g style="fill:rgb(0,0,0); fill-opacity:1.0; stroke-linejoin: miter">
<path d="M-179.7928,725.8669C-188.69429,731.61566,-193.11844,734.9538,-198.15198,739.7487C-203.477,744.7824,-209.64972,752.2797,-214.2859,759.3267C-218.63063,765.9499,-223.63768,775.1958,-223.45227,776.229C-223.39929,776.4674,-222.94893,776.8911,-222.39261,777.15625C-221.20044,777.739,-211.13332,781.3154,-210.68292,781.3154C-210.12657,781.3154,-208.21915,777.3417,-208.00719,775.75195C-206.55011,763.61847,-201.41055,751.0611,-193.80728,740.99396C-190.2838,736.33136,-184.77338,730.4765,-180.32265,726.66156C-178.81258,725.36346,-178.6536,725.15155,-179.7928,725.8669 Z"/>
</g>
<g style="fill:rgb(0,0,0); fill-opacity:1.0; stroke-linejoin: miter">
<path d="M-26.534542,782.9315C-29.157246,784.0973,-31.885952,785.3159,-32.627754,785.6073C-33.343037,785.8988,-34.005394,786.1636,-34.031853,786.21655C-34.08483,786.26953,-33.819942,787.22327,-33.422527,788.3624C-32.839718,790.0315,-32.786682,790.45544,-33.07809,790.7202C-33.263596,790.90576,-35.568424,791.75354,-38.191185,792.6012C-40.81388,793.4225,-43.0922,794.2438,-43.25119,794.4027C-43.410122,794.56165,-43.913498,795.7539,-44.390408,797.0785C-46.88064,803.9136,-52.04665,812.7884,-57.504128,819.59686C-58.934692,821.3984,-58.987732,821.50433,-58.987732,823.09393C-58.987732,827.14716,-60.41829,834.53864,-62.27279,840.0755L-63.464928,843.5726L-62.74964,844.0494C-61.425034,844.9765,-51.596386,850.7255,-51.357906,850.7255C-50.642624,850.7255,-47.6225,842.24786,-46.29789,836.4195C-45.820984,834.45917,-45.23817,830.7502,-44.84081,827.2797C-44.78783,826.69684,-44.62884,823.86224,-44.52289,820.97455C-44.36389,816.55023,-44.28445,815.70245,-43.913555,815.517C-43.410183,815.25226,-34.80018,814.69586,-31.117756,814.69586L-28.547977,814.69574L-28.362587,815.941C-28.150562,817.4246,-28.415516,826.43195,-28.786415,829.26666C-28.918888,830.35284,-29.10434,831.91595,-29.183834,832.71063C-29.899117,838.6978,-32.098,847.096,-34.641266,853.53375C-37.15801,859.86554,-42.456493,869.93243,-44.81431,872.8466L-45.45015,873.6149L-46.403862,873.1645C-47.702003,872.5551,-50.695606,870.7537,-61.636963,863.97174C-66.6705,860.84564,-71.01528,858.2758,-71.30668,858.22284C-71.704094,858.1435,-72.20742,858.5937,-73.2936,859.998C-74.96259,862.14386,-78.96294,866.1441,-82.32747,868.9522C-90.61956,875.89325,-101.32251,880.7945,-112.63476,882.80804C-115.70785,883.3643,-116.84701,883.4438,-123.36415,883.4172C-129.64285,883.4172,-131.07347,883.3377,-133.69623,882.8343L-136.74281,882.278L-138.19989,883.23175C-140.58421,884.79474,-145.56479,888.2652,-148.63788,890.54364L-151.52551,892.6895L-150.49231,893.13995C-149.14125,893.6962,-144.4786,895.0738,-141.64388,895.73615C-135.52415,897.19324,-129.35146,897.88196,-122.51645,897.8821C-117.2974,897.8821,-117.27094,897.8821,-117.16493,898.46484C-117.085495,898.8092,-116.90004,900.84924,-116.74105,903.0481C-116.58212,905.22046,-116.39674,907.60474,-116.343704,908.34656C-116.29073,909.0619,-116.15826,910.65137,-116.0523,911.87L-115.86685,914.06885L-122.59589,914.01575C-130.4641,913.98926,-134.17303,913.72437,-138.43832,912.98254C-146.01514,911.6315,-156.47963,908.4789,-162.65239,905.69714L-165.83134,904.24L-167.84483,906.0414C-173.06383,910.7041,-176.87872,914.3601,-176.71973,914.6251C-176.61377,914.75745,-174.62686,915.8436,-172.26904,916.9828C-153.38002,926.2554,-132.39803,930.0967,-112.23741,927.9509C-108.131065,927.5271,-104.02477,926.91785,-101.13714,926.33496C-95.89162,925.27527,-90.24873,923.65906,-90.24873,923.20874C-90.24873,923.0498,-92.26212,916.8507,-94.752464,909.40625C-97.21622,901.9618,-99.2561,895.49774,-99.2561,895.0474C-99.2561,894.25275,-99.150154,894.17316,-96.39497,893.034C-94.83194,892.37177,-92.606544,891.4444,-91.44087,890.9942C-90.27524,890.54364,-87.890854,889.45746,-86.142365,888.6097C-83.25473,887.2321,-81.40022,886.06635,-75.4395,882.0129C-74.35332,881.2712,-73.2141,880.6618,-72.9227,880.6618C-72.578316,880.6618,-71.862976,881.2447,-71.09471,882.1453C-69.054825,884.45026,-62.961624,892.1066,-62.961624,892.34503C-62.961624,893.03375,-71.38612,899.021,-77.05552,902.3856C-78.64507,903.31287,-79.916695,904.24,-79.916695,904.42554C-79.916695,904.77,-76.525696,913.51245,-75.413,915.9497C-75.1216,916.6649,-74.724236,917.22144,-74.59171,917.22144C-74.19434,917.22144,-67.518326,913.3534,-63.6504,910.916C-57.053825,906.73035,-52.152695,902.677,-45.609093,896.001C-34.800205,884.9537,-25.978281,871.3101,-20.73277,857.5606C-12.546687,836.1281,-11.804709,810.0861,-18.745773,787.30273C-20.388306,781.9778,-20.865158,780.78577,-21.342014,780.78577C-21.58044,780.78577,-23.91179,781.7395,-26.534542,782.9315 Z"/>
</g>
<g style="fill:rgb(0,0,0); fill-opacity:1.0; stroke-linejoin: miter">
<path d="M154.96452,824.5511C154.88509,825.3194,154.80553,827.25336,154.80553,828.86945C154.80551,832.97577,154.32872,839.5723,153.45444,847.65265C153.18959,850.2753,152.97757,852.4477,153.03061,852.4742C153.16302,852.60675,157.11041,841.10895,158.14366,837.6119C158.96484,834.8038,161.08429,826.4057,161.5612,824.0214L161.74666,823.1735L158.43503,823.1735L155.14996,823.1735L154.96452,824.5511 Z"/>
</g>
<g style="fill:rgb(0,0,0); fill-opacity:1.0; stroke-linejoin: miter">
<path d="M-83.09578,845.02985C-84.12898,846.27484,-98.83229,857.26935,-106.67398,862.6473C-109.08477,864.28986,-111.15123,865.7469,-111.28365,865.87946C-111.68107,866.22394,-107.97213,865.11115,-105.693756,864.21027C-102.54117,862.9653,-98.32892,860.68695,-95.54723,858.7264C-91.36143,855.7857,-85.40061,849.56,-82.75134,845.3476C-82.27449,844.6058,-82.53943,844.3409,-83.09578,845.02985 Z"/>
</g>
<g style="fill:rgb(0,0,0); fill-opacity:1.0; stroke-linejoin: miter">
<path d="M119.994576,866.9389C119.91512,867.2834,119.35883,869.69403,118.77596,872.3167C114.27225,892.39813,108.54982,908.87634,99.463066,927.9243C98.42981,930.0967,97.79396,931.7129,98.03245,931.50085C98.29733,931.28894,99.27762,930.44116,100.23133,929.67285C106.40403,924.50684,113.53048,917.5393,119.67673,910.6249C124.445335,905.2468,124.15388,905.7501,126.08786,899.94836C127.041565,897.06067,127.94231,894.7028,128.10124,894.7028C128.26022,894.7028,129.08147,894.88837,129.95573,895.12665C130.83,895.3387,131.57175,895.4976,131.62473,895.44464C132.65794,894.279,138.9366,883.6291,141.63884,878.51605L143.38739,875.1514L141.61238,874.7541C140.63216,874.5422,138.4598,874.09174,136.7908,873.77374C135.1217,873.4296,133.63817,873.08514,133.53221,872.97906C133.42621,872.8731,133.53221,871.893,133.77065,870.7801C134.03552,869.6409,134.14154,868.6608,134.0621,868.58136C133.85008,868.36945,122.08756,866.3825,121.00132,866.356C120.36547,866.356,120.12705,866.4886,119.994576,866.9389 Z"/>
</g>
<g style="fill:rgb(0,0,0); fill-opacity:1.0; stroke-linejoin: miter">
<path d="M-208.45764,955.1583C-211.02736,959.47656,-213.17326,963.371,-213.17326,963.7949C-213.17326,964.24524,-206.36472,968.13965,-199.92708,971.3716C-178.33582,982.18066,-157.64532,987.69104,-132.66301,989.30725C-126.49031,989.7046,-112.44934,989.4662,-107.3363,988.91003C-104.051315,988.53906,-96.31551,987.4265,-96.156525,987.2938C-96.1036,987.26733,-96.60691,984.5123,-98.43489,974.76306C-98.56736,974.1271,-98.69978,973.5709,-98.779274,973.5178C-98.832306,973.46484,-101.137146,973.70325,-103.89232,974.0477C-110.939285,974.922,-115.78737,975.23987,-122.4899,975.23975C-146.80992,975.23975,-167.84483,970.5239,-190.49576,959.97986C-196.27116,957.2777,-202.92072,953.72766,-204.72218,952.3766C-205.43747,951.8468,-206.07326,951.39636,-206.09982,951.39636C-206.15274,951.39636,-207.21246,953.0918,-208.45764,955.1583 Z"/>
</g>
<g style="fill:rgb(0,0,0); fill-opacity:1.0; stroke-linejoin: miter">
<path d="M-15.911182,971.9016C-23.090628,977.01465,-29.607708,980.93555,-38.456203,985.43933C-60.312393,996.53955,-83.06937,1002.9242,-108.925865,1005.22925C-111.46913,1005.44116,-116.873566,1005.5737,-123.89407,1005.5736C-133.45778,1005.5736,-135.63014,1005.49414,-140.71672,1004.96436C-149.0088,1004.08997,-153.48601,1003.4542,-159.44681,1002.2355C-169.85829,1000.14246,-177.43509,997.9701,-188.27042,994.0228C-191.8469,992.7245,-194.89352,991.6649,-195.05246,991.6649C-195.34392,991.6649,-200.9868,1002.50024,-201.3577,1003.7455C-201.54315,1004.3812,-201.91405,1004.1959,-194.49612,1007.0304C-191.87337,1008.01074,-187.8201,1009.4414,-185.48875,1010.2096C-176.6933,1013.0443,-177.01117,1012.91187,-176.93173,1013.6803C-176.85228,1014.3689,-177.14372,1015.56116,-179.39552,1023.64136C-180.53476,1027.7742,-180.7202,1028.2247,-181.25003,1028.2247C-182.86609,1028.2247,-195.55586,1024.118,-201.91406,1021.52185C-211.6102,1017.6011,-224.08812,1011.64014,-224.67097,1010.6599C-224.90938,1010.28906,-224.32657,1008.9645,-221.65086,1003.6394C-218.41872,997.28125,-218.31277,997.0957,-217.54451,997.0692C-217.09412,997.0692,-216.56429,996.9634,-216.37883,996.8573C-216.00798,996.619,-210.2591,985.1477,-210.2591,984.6443C-210.2591,984.45886,-210.76247,984.08813,-211.3718,983.8231C-211.98106,983.5582,-214.23293,982.2865,-216.35231,981.0149C-218.44524,979.7433,-220.27318,978.78955,-220.35268,978.8955C-220.85605,979.4254,-224.56499,989.095,-226.84332,995.77124C-229.94296,1004.83167,-234.63213,1021.7074,-234.18173,1022.1577C-233.78436,1022.5287,-226.84337,1026.1582,-222.97551,1028.0127C-207.79529,1035.298,-192.48273,1040.6494,-175.0243,1044.7556C-168.79863,1046.2129,-158.54604,1048.1204,-158.2812,1047.882C-158.12222,1047.7229,-157.30095,1041.6033,-156.58563,1035.3511L-156.4267,1033.8676L-159.39383,1033.3112C-161.00989,1033.0199,-162.51988,1032.5961,-162.75836,1032.4105C-163.07623,1032.172,-163.12921,1031.7748,-162.99673,1030.6885C-162.78487,1028.8606,-160.55951,1017.73364,-160.32108,1017.3629C-160.05614,1016.93896,-158.4666,1017.0449,-153.64502,1017.76025C-142.43877,1019.4557,-132.71599,1020.09155,-120.21161,1019.9592L-110.5419,1019.87976L-110.383026,1020.5685C-109.98561,1021.999,-109.32329,1029.8143,-109.32329,1033.0464C-109.32329,1035.1659,-109.37621,1035.3776,-109.9061,1035.6956C-110.38301,1035.9606,-113.66801,1036.04,-124.5564,1036.0929C-132.26567,1036.1193,-138.96822,1036.1459,-139.4186,1036.1459L-140.23984,1036.1724L-140.55775,1038.4773C-140.7432,1039.7751,-140.92871,1041.1528,-140.98174,1041.6033C-141.03467,1042.0271,-141.22011,1043.2988,-141.35257,1044.385C-141.5115,1045.4712,-141.69696,1047.1667,-141.80298,1048.1204L-141.96191,1049.8689L-140.69028,1050.0543C-139.97495,1050.1338,-135.57724,1050.3457,-130.91458,1050.4783C-105.428955,1051.2731,-81.47982,1048.0674,-55.596783,1040.4109C-52.62959,1039.5367,-49.927395,1038.8214,-49.58301,1038.8214C-48.788235,1038.8214,-48.76178,1038.9009,-46.403976,1045.789C-45.450268,1048.5707,-44.60252,1051.0344,-44.549484,1051.22C-44.470043,1051.4318,-42.959988,1049.7363,-41.052513,1047.2725C-39.171555,1044.9147,-35.833466,1040.8348,-33.608128,1038.2388L-29.55481,1033.4966L-29.846214,1032.596C-30.217113,1031.4832,-30.111156,1031.2712,-28.760029,1030.5824C-28.17722,1030.2909,-27.647333,1029.8936,-27.567839,1029.7083C-27.408915,1029.3109,-28.15065,1027.6417,-31.170822,1021.522C-32.36301,1019.0847,-33.422676,1017.0978,-33.555145,1017.0978C-33.661102,1017.0978,-35.833466,1017.99854,-38.40324,1019.0847C-51.67595,1024.7012,-65.50495,1028.9135,-80.976456,1032.0396C-87.54657,1033.3643,-90.354774,1033.7881,-90.7786,1033.5231C-91.20248,1033.258,-91.758835,1030.2382,-92.52711,1024.0126C-93.21593,1018.5287,-93.21593,1018.34314,-92.76553,1017.9723C-92.47413,1017.78687,-91.99728,1017.6278,-91.65289,1017.6278C-90.01035,1017.6277,-76.94961,1014.7134,-68.94887,1012.5675C-50.669197,1007.6664,-28.627548,997.7583,-13.447425,987.63806C-8.9172535,984.61804,-2.90354,980.35266,-2.7180893,980.0348C-2.4795518,979.63745,-10.851123,968.8815,-11.381009,968.8815C-11.566459,968.90796,-13.606404,970.25903,-15.911182,971.9016 Z"/>
</g>
<g style="fill:rgb(0,0,0); fill-opacity:1.0; stroke-linejoin: miter">
<path d="M-238.18207,1041.8416C-238.7914,1045.7891,-239.66563,1052.5975,-239.66563,1053.3129C-239.66563,1053.8163,-239.21526,1054.1342,-237.30782,1055.1144C-226.6844,1060.4392,-212.74944,1065.8171,-198.73499,1069.9763C-185.56827,1073.9238,-185.88625,1073.7651,-185.88625,1075.2485C-185.88625,1076.2551,-187.89963,1084.2825,-188.87985,1087.1702C-189.46266,1088.8655,-189.56866,1089.0245,-190.28394,1089.104C-192.29735,1089.2893,-215.61063,1081.951,-226.5519,1077.6593C-228.59184,1076.8645,-230.34033,1076.3082,-230.47278,1076.4141C-230.68474,1076.626,-235.08246,1086.2163,-235.77129,1088.0178L-236.19513,1089.104L-234.79105,1089.7664C-234.02275,1090.1373,-230.94969,1091.3293,-227.9295,1092.442C-195.90034,1104.2311,-165.69905,1110.4039,-134.49104,1111.5431C-131.94778,1111.649,-129.6165,1111.7816,-129.35155,1111.861C-128.8747,1111.9935,-128.84818,1112.2584,-129.03363,1118.0072C-129.13959,1121.2924,-129.27205,1124.7894,-129.37802,1125.7697C-129.56348,1127.942,-129.48398,1127.9154,-134.4381,1127.7035C-148.29361,1127.1207,-158.99646,1126.0079,-175.81909,1123.4645C-184.21718,1122.1664,-197.4898,1119.1198,-209.30545,1115.7552C-214.07404,1114.3776,-218.10089,1113.265,-218.20685,1113.265C-218.71022,1113.265,-222.79004,1124.7892,-222.65761,1125.902C-222.57811,1126.6703,-222.28668,1126.8556,-219.9289,1127.7565C-218.71024,1128.2333,-218.60423,1128.3392,-218.65726,1129.0809C-218.71024,1129.5314,-219.18704,1131.4125,-219.74344,1133.2404C-220.32625,1135.0682,-220.72362,1136.6315,-220.64415,1136.7108C-220.56471,1136.7904,-214.12703,1136.8434,-206.36478,1136.8434L-192.21788,1136.8431L-191.95294,1136.0487C-191.794,1135.5983,-191.50261,1135.2535,-191.31715,1135.2535C-191.13171,1135.2535,-189.51569,1135.5717,-187.71417,1135.9691L-184.42917,1136.7108L-127.52359,1136.7904C-81.824295,1136.8435,-70.618,1136.7903,-70.51205,1136.5254C-70.45907,1136.3401,-70.37958,1133.2932,-70.32659,1129.7434L-70.247154,1123.3057L-71.04187,1123.438C-72.34003,1123.6765,-84.15559,1125.3987,-85.74514,1125.5576C-86.53992,1125.6636,-88.15593,1125.8489,-89.321594,1125.9814C-91.59993,1126.2198,-93.29549,1126.4054,-96.20964,1126.6437C-97.21633,1126.7496,-99.12381,1126.9352,-100.44841,1127.0411C-101.74656,1127.1735,-102.8592,1127.2267,-102.93869,1127.1471C-103.071106,1127.0411,-103.81291,1119.226,-104.13083,1114.7223C-104.2633,1112.6293,-104.55472,1109.1855,-104.92561,1104.9202C-105.00505,1104.1785,-105.190506,1102.1384,-105.376,1100.337L-105.69387,1097.1049L-116.44977,1097.2637C-126.86122,1097.4491,-137.69662,1097.1578,-145.08803,1096.5748C-150.06853,1096.151,-165.32814,1094.4554,-165.77853,1094.2435C-166.14943,1094.0845,-166.06993,1093.2897,-165.0897,1087.0376C-163.8446,1079.196,-163.65916,1078.2952,-163.39421,1078.2952C-163.28825,1078.2952,-160.05617,1078.6396,-156.21478,1079.09C-135.39178,1081.4214,-116.39684,1081.7394,-99.123795,1080.0173C-86.11602,1078.7455,-73.87659,1076.7057,-62.246407,1073.9237L-59.279266,1073.2085L-57.10686,1069.8705C-55.411404,1067.2477,-49.556564,1058.6907,-47.119316,1055.2467C-46.80134,1054.8229,-47.066284,1054.8494,-49.371113,1055.5382C-62.113937,1059.4059,-70.56501,1061.3666,-83.97012,1063.5919C-98.540924,1066.0027,-108.26363,1066.7446,-123.89415,1066.718C-142.94212,1066.6914,-157.16849,1065.1814,-176.4814,1061.1545C-178.94518,1060.6512,-184.00523,1059.406,-187.68771,1058.3994C-203.58308,1054.0544,-217.04118,1048.9945,-231.61195,1041.8945L-237.73167,1038.901L-238.18207,1041.8416 Z"/>
</g>
<g style="fill:rgb(0,0,0); fill-opacity:1.0; stroke-linejoin: miter">
<path d="M-69.71726,1092.0975C-71.0154,1092.3625,-75.67805,1093.1836,-80.04928,1093.9255C-84.420525,1094.6674,-88.31491,1095.3296,-88.712326,1095.4092C-89.37457,1095.5417,-89.42755,1095.6477,-89.295135,1096.5219C-89.2421,1097.0516,-88.9507,1100.2307,-88.6593,1103.569C-88.394356,1106.8805,-88.10295,1109.6622,-88.04997,1109.7418C-87.944016,1109.8478,-69.02845,1106.6686,-68.843,1106.5095C-68.81654,1106.483,-68.60463,1105.2113,-68.36615,1103.7013C-68.154236,1102.1913,-67.5449,1098.8796,-67.06805,1096.3628C-66.564674,1093.8461,-66.14079,1091.7266,-66.14079,1091.6737C-66.14079,1091.4617,-67.25349,1091.5942,-69.71726,1092.0975 Z"/>
</g>
<g style="fill:rgb(0,0,0); fill-opacity:1.0; stroke-linejoin: miter">
<path d="M-242.26193,1111.9404L-242.18245,1119.7029L-240.53992,1120.312C-239.29477,1120.7888,-238.84438,1120.8418,-238.65895,1120.6033C-237.86423,1119.6498,-233.91684,1108.0461,-234.26125,1107.7017C-234.39369,1107.5691,-236.11568,1106.8009,-238.07617,1105.9797C-240.03658,1105.1586,-241.81157,1104.4167,-241.99702,1104.3373C-242.26196,1104.2312,-242.31491,1105.7678,-242.26193,1111.9404 Z"/>
</g>
<g style="fill:rgb(0,0,0); fill-opacity:1.0; stroke-linejoin: miter">
<path d="M-142.17389,1196.1064C-143.419,1196.133,-146.51862,1196.3713,-149.06187,1196.5835C-173.69972,1198.7556,-194.68163,1205.5642,-213.75615,1217.5918C-215.47815,1218.6516,-216.88226,1219.5789,-216.88226,1219.6318C-216.88226,1219.6582,-215.84906,1219.4729,-214.55096,1219.1814C-203.37119,1216.6648,-194.41675,1214.916,-187.34334,1213.8298C-180.50827,1212.7966,-174.17659,1212.0283,-172.90497,1212.1343L-171.71283,1212.2139L-171.3949,1214.0684C-170.7326,1218.0688,-169.9379,1227.2615,-170.2293,1227.4473C-170.38823,1227.5266,-171.97778,1227.7649,-173.77925,1227.9504C-184.85301,1229.116,-204.56334,1232.8779,-219.66399,1236.7195C-225.57181,1238.2029,-225.5188,1238.2029,-225.96918,1237.3286C-226.1811,1236.9312,-226.86993,1234.7854,-227.47925,1232.613C-228.11507,1230.4143,-228.6449,1228.5862,-228.69788,1228.5332C-228.88332,1228.3213,-234.92357,1233.9111,-239.05643,1238.0707C-246.60672,1245.7535,-252.1966,1252.668,-257.70703,1261.2251C-260.17084,1265.0399,-260.99207,1266.497,-260.56818,1266.3114C-260.35626,1266.232,-258.15738,1265.3049,-255.69357,1264.2717C-246.6597,1260.4568,-234.4732,1255.8468,-234.1818,1256.1649C-234.12885,1256.2179,-233.36057,1258.205,-232.48631,1260.589C-230.60536,1265.702,-229.01575,1270.8679,-229.2012,1271.1594C-229.28069,1271.2917,-230.36687,1271.7688,-231.61201,1272.2456C-232.8572,1272.7227,-233.94334,1273.2786,-234.02278,1273.4641C-234.10228,1273.676,-233.33401,1276.1399,-232.30078,1278.9216C-229.943,1285.3062,-229.41313,1286.5249,-228.98926,1286.3923C-228.8038,1286.3394,-226.81688,1285.7036,-224.56505,1284.9619C-216.061,1282.2332,-204.82832,1279.1069,-203.45067,1279.1069C-202.7354,1279.1069,-202.62944,1279.2395,-202.23203,1280.4846C-201.80814,1281.8887,-197.91376,1296.698,-196.08583,1303.9834C-195.55594,1306.1028,-195.0791,1307.9043,-194.9996,1308.0103C-194.94662,1308.1162,-194.07243,1307.9836,-193.09221,1307.6924C-185.17094,1305.4141,-159.73837,1301.6257,-152.37349,1301.6257L-151.23428,1301.6257L-151.04883,1304.4602C-150.96933,1306.05,-150.83693,1307.8513,-150.7839,1308.5137C-150.73097,1309.176,-150.59851,1311.4543,-150.4925,1313.5737L-150.3071,1317.4417L-151.34024,1317.6006C-151.89659,1317.6802,-154.75778,1318.0247,-157.67195,1318.3159C-170.33531,1319.6404,-181.09116,1321.4949,-192.37689,1324.303C-199.55632,1326.1045,-209.51743,1329.0981,-210.0208,1329.6279C-210.1798,1329.7871,-205.75552,1342.5298,-205.41115,1342.8479C-205.38463,1342.9006,-203.84811,1342.4504,-202.0466,1341.894C-188.2706,1337.4963,-175.52779,1334.8472,-158.33426,1332.7544C-145.90938,1331.2441,-126.56993,1331.1912,-113.29735,1332.6482C-101.11083,1333.9729,-94.01088,1335.218,-83.281494,1337.9202C-75.042336,1339.9866,-72.52559,1340.7549,-72.31363,1341.2847C-72.101715,1341.8411,-72.711044,1344.2253,-74.72447,1350.6365C-76.12852,1355.1134,-76.44643,1355.8024,-76.92329,1355.882C-77.241264,1355.9347,-80.44683,1355.246,-84.07627,1354.372C-103.9455,1349.5769,-117.27118,1347.8813,-134.75612,1347.855C-146.01534,1347.855,-152.08206,1348.2258,-162.30814,1349.6035C-181.27661,1352.1201,-197.35748,1356.5972,-216.22002,1364.6245C-223.5054,1367.6975,-237.81128,1375.1683,-237.81128,1375.857C-237.81128,1376.493,-235.321,1380.7847,-228.61842,1391.6995C-226.41957,1395.2762,-224.24718,1398.9586,-223.77031,1399.8595L-222.89604,1401.5284L-223.5054,1402.1642C-223.84981,1402.5353,-226.20763,1404.2306,-228.77737,1405.9261C-236.35422,1411.0126,-244.69931,1417.4237,-249.28244,1421.6627L-250.79254,1423.0931L-248.38174,1426.0074C-245.99745,1428.8685,-245.30861,1429.6898,-242.79189,1432.445L-241.52022,1433.8756L-239.34789,1431.9152C-232.72473,1426.0336,-223.8233,1419.5431,-215.66368,1414.6686C-212.64355,1412.8671,-202.338,1407.3302,-201.96709,1407.3302C-201.86113,1407.3302,-201.78165,1407.2242,-201.78165,1407.0919C-201.78165,1406.9594,-203.68912,1402.3497,-206.04694,1396.8392C-210.49763,1386.3748,-213.17337,1379.7781,-213.17337,1379.2747C-213.17337,1378.7449,-207.50401,1376.281,-199.9272,1373.4993C-184.2967,1367.7505,-167.02379,1364.0151,-148.92947,1362.5051C-142.99522,1362.0017,-126.86133,1362.081,-120.18532,1362.6641C-104.157455,1364.0151,-89.26874,1367.1146,-74.7774,1372.0953C-67.86296,1374.506,-56.709652,1379.1952,-50.828365,1382.2155C-49.477303,1382.904,-48.311623,1383.4868,-48.25859,1383.4868C-48.205666,1383.4868,-47.172413,1381.8444,-45.92729,1379.8309C-40.73482,1371.38,-40.867237,1371.6979,-41.688526,1370.9825C-41.95342,1370.7443,-44.284763,1369.5255,-46.880997,1368.2538C-49.47729,1367.0087,-51.67617,1365.7902,-51.72909,1365.6046C-51.808586,1365.3927,-51.72909,1364.7833,-51.570152,1364.2269C-51.0933,1362.7435,-48.232117,1356.1469,-46.880997,1353.4712C-45.768353,1351.2192,-45.68886,1351.1133,-45.00004,1351.2988C-43.03965,1351.7759,-30.29684,1358.3722,-23.355831,1362.505C-19.196508,1364.9952,-11.248816,1370.2672,-6.9570737,1373.3934C-4.943705,1374.8771,-3.2480893,1376.0426,-3.195168,1375.9896C-2.9038177,1375.6984,-0.3604992,1365.3927,0.19579306,1362.2665L0.35478097,1361.3395L-5.5265064,1357.2067C-16.70628,1349.4177,-18.348806,1348.4377,-30.561726,1342.3179C-41.7415,1336.7014,-51.861557,1332.3567,-59.835766,1329.6809C-67.73048,1327.0583,-81.612495,1323.2433,-87.59969,1322.0511C-98.19666,1319.9585,-112.84695,1318.104,-124.2121,1317.4417C-127.391205,1317.2297,-130.06693,1316.9912,-130.17288,1316.8853C-130.4643,1316.6204,-130.43784,1301.7317,-130.17288,1301.4402C-130.0404,1301.3342,-128.95422,1301.1487,-127.70911,1301.0693C-126.49046,1300.99,-125.4308,1300.8574,-125.3513,1300.7778C-124.90091,1300.3276,-124.132645,1287.2402,-124.55652,1286.8428C-124.84793,1286.5251,-144.55821,1286.6575,-149.85669,1287.002C-155.63199,1287.3728,-156.0294,1287.4258,-163.18231,1288.1145C-166.20248,1288.4324,-170.60017,1288.9622,-172.9845,1289.3066C-175.34232,1289.6509,-177.35573,1289.8364,-177.46169,1289.7571C-177.56764,1289.6509,-178.75978,1282.9749,-180.1109,1274.9211C-181.46202,1266.8678,-182.62769,1260.1654,-182.70718,1260.0062C-182.81314,1259.8473,-185.3564,1260.2714,-189.35674,1261.0924C-200.08617,1263.3177,-201.8611,1263.6888,-203.42413,1263.8741C-204.72227,1264.0067,-204.96071,1263.9801,-205.19914,1263.5297C-205.51706,1262.9469,-209.04053,1248.9059,-208.88155,1248.7736C-208.64317,1248.535,-196.88052,1246.0713,-189.46268,1244.6936C-180.58778,1243.051,-168.4808,1241.541,-157.53941,1240.6934C-151.18126,1240.2166,-144.63768,1240.031,-133.56386,1240.0574C-121.32442,1240.084,-115.73452,1240.3489,-103.124176,1241.5144C-97.29585,1242.0444,-96.342094,1242.2034,-96.342094,1242.5742C-96.342094,1243.2632,-97.958176,1255.3436,-98.17009,1256.3241C-98.43503,1257.5162,-99.0179,1258.1783,-99.759636,1258.1783C-99.99807,1258.1783,-101.56116,1257.993,-103.23014,1257.8075C-116.343864,1256.1649,-137.14032,1255.6617,-152.90324,1256.5887C-158.01634,1256.8802,-163.07634,1257.2777,-164.87779,1257.5426L-166.017,1257.7015L-166.017,1258.8671C-166.017,1260.0858,-164.82484,1269.888,-164.53345,1271.0537L-164.34799,1271.7424L-161.80476,1271.5571C-160.40065,1271.4775,-157.88391,1271.292,-156.21486,1271.1597C-144.00194,1270.1794,-123.602844,1270.2588,-112.37003,1271.3186C-99.41531,1272.5107,-80.55276,1275.3981,-78.883705,1276.4313C-78.43337,1276.7228,-78.69831,1278.6832,-80.075905,1285.0677C-81.13557,1289.9955,-81.47996,1291.2142,-81.87731,1291.5319C-82.19529,1291.797,-84.28815,1291.5055,-92.368324,1290.1279C-98.56754,1289.0684,-107.38951,1287.9556,-107.627884,1288.1941C-107.91929,1288.459,-108.422714,1293.5454,-108.68762,1298.8704L-108.87307,1302.3411L-106.7802,1302.5C-104.28992,1302.6853,-88.81838,1305.255,-83.25497,1306.3678C-75.14833,1308.037,-62.64389,1311.5604,-53.55705,1314.7394C-35.383347,1321.1239,-16.732733,1330.2373,-1.4467242,1340.1985C0.46080187,1341.4436,2.0503502,1342.3975,2.1033282,1342.3445C2.6861389,1341.7615,2.2622697,1326.0516,1.6264259,1325.2833C1.1760887,1324.7006,-8.970482,1319.0575,-15.673008,1315.64C-29.396036,1308.6195,-37.370243,1305.2286,-51.835022,1300.3009C-57.001026,1298.526,-59.411877,1297.5724,-59.464855,1297.3073C-59.544346,1296.9894,-53.292084,1276.0604,-51.411194,1270.3911C-51.225746,1269.7288,-51.040295,1269.0137,-51.040295,1268.7751C-51.0403,1268.2189,-53.927883,1267.3182,-63.75653,1264.9073C-72.65794,1262.7084,-74.08856,1262.2582,-74.08856,1261.6224C-74.08856,1260.7216,-71.12141,1246.9191,-70.88299,1246.6542C-70.72405,1246.5216,-58.59058,1249.4624,-53.027145,1250.999C-43.27799,1253.6746,-30.800064,1257.8076,-22.163609,1261.1984C-20.49456,1261.8344,-19.09046,1262.3375,-19.010965,1262.2845C-18.87855,1262.1256,-22.98484,1256.0854,-25.475119,1252.7473C-28.07141,1249.3298,-30.48214,1246.389,-33.051914,1243.5546L-34.879894,1241.5411L-37.714554,1240.5873C-59.27932,1233.4872,-84.18214,1228.6923,-110.78047,1226.5198C-115.54907,1226.1223,-124.053116,1225.7781,-132.47768,1225.6191L-142.01492,1225.4602L-142.20036,1224.7183C-142.30632,1224.2944,-142.49176,1220.718,-142.59772,1216.7178L-142.78316,1209.4854L-139.97495,1209.3794C-138.43843,1209.3262,-137.08733,1209.2202,-137.00789,1209.1143C-136.92839,1209.0349,-136.7694,1206.1472,-136.6899,1202.6768C-136.5045,1195.5767,-136.42506,1195.8945,-138.59737,1195.9741C-139.31265,1196.0005,-140.92871,1196.0537,-142.17389,1196.1064 Z"/>
</g>
<g style="fill:rgb(0,0,0); fill-opacity:1.0; stroke-linejoin: miter">
<path d="M-120.26466,1197.6697C-120.37062,1197.7754,-120.45012,1200.4512,-120.45012,1203.6304C-120.45012,1209.4321,-120.45012,1209.4321,-119.84079,1209.5647C-119.52292,1209.6177,-116.97968,1209.803,-114.22446,1209.9622C-102.302925,1210.6243,-83.9437,1212.9293,-71.01545,1215.393C-68.36618,1215.8964,-66.0614,1216.3202,-65.84938,1216.3202C-64.89572,1216.2938,-75.49263,1210.6774,-81.241455,1208.1608C-90.83169,1203.9481,-102.46186,1200.4778,-113.16474,1198.5969C-119.099,1197.5635,-120.026245,1197.4312,-120.26466,1197.6697 Z"/>
</g>
<g style="fill:rgb(0,0,0); fill-opacity:1.0; stroke-linejoin: miter">
<path d="M-35.383324,1274.3649C-35.51574,1274.7091,-35.992653,1275.9545,-36.4695,1277.12C-37.688156,1280.1669,-39.64861,1285.9686,-39.64861,1286.525C-39.64861,1287.0018,-39.277714,1287.1871,-30.641197,1290.7372C-24.28305,1293.3336,-19.805862,1295.4,-10.5069895,1300.0626C-5.632495,1302.5265,-1.6321031,1304.4869,-1.5790694,1304.4603C-1.4996321,1304.381,-2.506315,1300.3541,-3.2215934,1297.7843C-3.4600766,1296.91,-4.4402447,1293.8104,-5.393951,1290.9227L-7.169003,1285.6508L-11.010351,1283.8226C-18.4017,1280.2992,-32.15124,1274.4708,-34.4031,1273.941C-35.012424,1273.7821,-35.171356,1273.8617,-35.383324,1274.3649 Z"/>
</g>
<g style="fill:rgb(0,0,0); fill-opacity:1.0; stroke-linejoin: miter">
<path d="M-253.17682,1280.6438C-254.71338,1281.3062,-259.48196,1283.6107,-263.7737,1285.7566L-271.58896,1289.6245L-272.8871,1293.8369C-274.02628,1297.5193,-276.0662,1305.3079,-276.56958,1307.9307L-276.75504,1308.8313L-275.74832,1308.2485C-270.7147,1305.2551,-256.54132,1297.9432,-250.66003,1295.3204C-248.62012,1294.3932,-246.44775,1293.36,-245.8384,1292.9891L-244.72572,1292.3268L-245.65297,1289.6776C-247.6134,1284.2201,-249.60031,1279.5046,-249.99774,1279.4517C-250.20966,1279.425,-251.64026,1279.9551,-253.17682,1280.6438 Z"/>
</g>
<g style="fill:rgb(0,0,0); fill-opacity:1.0; stroke-linejoin: miter">
<path d="M-220.1938,1300.6719C-240.19553,1307.6129,-258.9786,1316.5674,-274.82108,1326.7139C-277.1789,1328.2241,-279.21884,1329.6016,-279.3248,1329.7869C-279.82812,1330.6082,-279.90762,1345.5764,-279.40427,1346.3977C-279.27182,1346.6096,-277.70874,1345.709,-274.4767,1343.5366C-265.78717,1337.7346,-258.95212,1333.6814,-257.73352,1333.6019C-257.1242,1333.549,-256.80634,1333.9198,-255.08432,1336.7281C-253.12384,1339.9337,-249.4679,1346.4508,-249.4679,1346.7157C-249.4679,1346.9276,-250.8985,1347.8549,-255.6936,1350.7955C-262.8995,1355.1931,-274.2647,1362.9287,-276.8345,1365.207C-277.1524,1365.4719,-275.56287,1372.1748,-274.18524,1376.4133L-273.01962,1380.0693L-271.50952,1378.8506C-268.0655,1376.0425,-260.38275,1370.373,-257.0977,1368.1744C-248.56711,1362.452,-235.5329,1355.352,-225.14792,1350.7424C-223.00201,1349.7888,-221.14757,1348.9146,-221.01514,1348.7822C-220.75021,1348.5171,-221.35951,1346.8748,-225.83672,1336.0657C-230.28741,1325.2832,-231.718,1321.6008,-231.718,1320.9385C-231.718,1320.5413,-231.32062,1320.2231,-230.18141,1319.72C-227.45271,1318.5276,-219.76994,1315.6138,-215.1603,1314.0508C-212.06067,1313.0173,-210.68309,1312.4082,-210.73607,1312.1697C-211.55736,1308.9641,-214.33904,1299.0559,-214.47151,1298.9236C-214.551,1298.844,-217.12071,1299.612,-220.1938,1300.6719 Z"/>
</g>
<g style="fill:rgb(0,0,0); fill-opacity:1.0; stroke-linejoin: miter">
<path d="M-144.29337,1378.48C-155.36717,1379.1157,-165.43419,1380.5728,-175.8192,1383.116C-184.19075,1385.156,-192.11198,1387.5933,-191.8735,1388.0967C-191.79407,1388.2556,-190.62839,1391.1697,-189.25081,1394.5609C-187.87321,1397.952,-186.70755,1400.7601,-186.62807,1400.8397C-186.57509,1400.9191,-184.34975,1400.3097,-181.67395,1399.515C-171.07706,1396.3094,-162.3346,1394.5612,-151.71117,1393.4482C-145.69739,1392.8389,-142.62431,1392.7065,-134.30571,1392.7065C-126.67587,1392.7065,-124.37109,1392.8389,-123.6293,1393.2893C-123.125946,1393.6072,-123.178925,1395.753,-124.15915,1411.1716C-124.58302,1417.8475,-124.900955,1423.358,-124.8745,1423.3844C-124.84798,1423.411,-123.04654,1423.6229,-120.847595,1423.8615C-107.33653,1425.3715,-90.38146,1430.4314,-79.12219,1436.2861C-72.92297,1439.5181,-65.45215,1444.2336,-59.226475,1448.8435C-57.371983,1450.1946,-55.78249,1451.3071,-55.676533,1451.3071C-55.22614,1451.3071,-45.635857,1443.5715,-44.761642,1442.5117C-44.496754,1442.1938,-45.10608,1441.6111,-48.338108,1439.0413C-57.66344,1431.6235,-67.35961,1425.7688,-78.06252,1421.0266C-83.41393,1418.6953,-87.175896,1417.2646,-94.461296,1414.8539C-98.24967,1413.6088,-101.53473,1412.443,-101.799614,1412.2577C-102.250015,1411.9133,-102.250015,1411.7808,-101.640686,1408.8933C-100.89889,1405.2374,-98.80602,1397.5016,-98.46164,1397.1571C-98.1172,1396.8129,-95.94484,1397.3427,-90.248985,1399.1703C-70.03534,1405.714,-57.001072,1412.3901,-40.17844,1424.8152C-37.76766,1426.5901,-35.462883,1428.206,-35.065464,1428.418C-34.35013,1428.7888,-34.297207,1428.7888,-33.740856,1428.0735C-32.7076,1426.749,-26.932314,1420.0198,-22.084227,1414.5095C-19.461472,1411.5422,-16.99771,1408.6282,-16.600348,1408.0188C-15.59355,1406.5089,-11.328321,1398.2167,-9.950681,1395.0377L-8.811523,1392.4148L-9.579782,1391.779C-14.295453,1387.9375,-25.766624,1379.778,-26.481901,1379.778C-26.932299,1379.778,-40.046017,1400.6012,-42.006462,1404.4689C-42.218376,1404.893,-42.48332,1405.2108,-42.589275,1405.2108C-42.72169,1405.2108,-44.814606,1404.0717,-47.25191,1402.6676C-64.445435,1392.7593,-80.92369,1386.1096,-96.89854,1382.5598C-112.95291,1379.0098,-129.00723,1377.6323,-144.29337,1378.48 Z"/>
</g>
<g style="fill:rgb(0,0,0); fill-opacity:1.0; stroke-linejoin: miter">
<path d="M-253.65369,1386.1097C-255.95853,1387.6993,-264.0122,1394.1635,-266.39648,1396.3358C-266.6879,1396.6273,-266.47598,1397.2367,-265.12488,1399.9388C-262.92603,1404.3365,-260.25024,1409.1846,-259.98535,1409.1846C-259.87933,1409.1846,-258.55475,1408.1514,-257.0712,1406.8535C-253.83914,1404.0984,-250.87198,1401.7668,-247.03058,1399.0117L-244.16943,1396.9717L-245.44107,1394.9319C-246.15637,1393.8191,-247.77237,1391.1698,-249.07053,1389.0504C-250.36865,1386.931,-251.4813,1385.1295,-251.58728,1384.9972C-251.66675,1384.891,-252.59396,1385.3944,-253.65369,1386.1097 Z"/>
</g>
<g style="fill:rgb(0,0,0); fill-opacity:1.0; stroke-linejoin: miter">
<path d="M-145.37953,1409.0259C-145.43245,1409.0786,-146.4392,1409.1846,-147.60486,1409.2644C-150.09515,1409.4497,-152.63843,1409.7676,-157.40707,1410.5095C-182.97217,1414.3768,-208.3783,1426.2721,-227.71768,1443.333L-229.65163,1445.0815L-228.51248,1446.1147C-227.26732,1447.2273,-219.31963,1453.2412,-218.5513,1453.6653C-218.1804,1453.8506,-217.6771,1453.5591,-216.22002,1452.3406C-201.94063,1440.26,-182.62775,1430.5638,-165.16933,1426.6696C-157.96338,1425.08,-151.04889,1423.994,-143.6311,1423.2787L-141.51166,1423.0931L-141.35272,1421.901C-141.03479,1419.7816,-140.53146,1409.5024,-140.7169,1409.2112C-140.87584,1408.9463,-145.11458,1408.7874,-145.37953,1409.0259 Z"/>
</g>
<g style="fill:rgb(0,0,0); fill-opacity:1.0; stroke-linejoin: miter">
<path d="M-139.6572,1439.4124C-150.09517,1439.8098,-160.82455,1441.7703,-170.6532,1445.0549C-177.46172,1447.3335,-183.26357,1450.0093,-190.41644,1454.1155C-195.55597,1457.0562,-203.10632,1462.1691,-203.10632,1462.6725C-203.10632,1462.7784,-202.23206,1463.2552,-201.1724,1463.732C-196.58919,1465.8517,-191.95303,1467.8385,-190.07213,1468.5538L-188.00566,1469.2955L-185.17099,1467.5736C-181.72702,1465.4806,-172.32222,1460.7651,-170.78566,1460.3679C-169.80544,1460.1294,-169.67302,1460.1558,-169.32858,1460.6855C-168.61331,1461.7719,-164.16258,1473.8524,-164.16258,1474.7001C-164.16258,1474.9386,-164.40106,1475.2035,-164.71892,1475.2828C-165.75214,1475.6273,-164.8514,1475.8922,-160.58614,1476.5812C-153.5127,1477.6937,-149.69777,1477.9323,-138.59749,1477.9323C-127.55017,1477.9323,-124.58304,1477.7203,-115.41672,1476.316C-109.48244,1475.389,-108.52873,1475.1771,-108.52873,1474.7267C-108.52873,1474.2233,-109.16452,1474.0114,-114.065636,1472.7396C-118.78124,1471.5209,-124.291626,1470.5409,-128.66287,1470.1171C-131.92142,1469.799,-139.94861,1469.799,-142.57137,1470.1171C-143.44562,1470.2228,-144.24033,1470.2228,-144.34633,1470.1434C-144.53178,1469.9845,-145.48549,1462.0104,-146.01534,1456.1821L-146.20079,1454.301L-143.81653,1453.9832C-139.23332,1453.4004,-128.55692,1453.6653,-122.17226,1454.513C-116.582375,1455.2549,-106.197426,1457.8774,-101.11086,1459.8381C-97.48142,1461.2418,-91.04377,1464.3679,-87.86468,1466.3018C-86.48709,1467.1233,-85.16248,1467.812,-84.89754,1467.7856C-83.837875,1467.7327,-70.64468,1461.3213,-70.64468,1460.8445C-70.64468,1460.7385,-72.07523,1459.6523,-73.823715,1458.4338C-83.25501,1451.8638,-90.09006,1448.4194,-100.26311,1445.0552C-113.774216,1440.6045,-125.77522,1438.9092,-139.6572,1439.4124 Z"/>
</g>
</g>
</g>
</svg>