<?xml version='1.0' encoding='utf-8'?>
<svg xmlns:xlink="http://www.w3.org/1999/xlink" xmlns="http://www.w3.org/2000/svg" height="100%" stroke-miterlimit="10" style="fill-rule:nonzero;clip-rule:evenodd;stroke-linecap:round;stroke-linejoin:round;" version="1.1" viewBox="0 0 3000 3000" width="100%"> <defs> <path d="M557.28 1500C557.28 969.426 979.35 539.311 1500 539.311C2020.65 539.311 2442.72 969.426 2442.72 1500C2442.72 2030.57 2020.65 2460.69 1500 2460.69C979.35 2460.69 557.28 2030.57 557.28 1500Z" id="Fill"/> <path d="M1148.16 1286.27C1173.75 1335.57 1243.35 1340.93 1259.28 1343.68C1457.95 1378 1333.5 1175.34 1482.92 1122.19C1626.67 1071.05 1609.56 1245.6 1552.61 1311.1C1529.69 1337.46 1430.89 1409.11 1423.16 1472.79C1411.82 1566.19 1422.41 1660.96 1423.16 1755.05C1502.23 1758.05 1502.23 1758.05 1581.31 1761.05C1589.39 1695.94 1591.67 1597.71 1623.34 1530.62C1667.76 1436.54 1767.61 1389.86 1825.72 1305.4C1898.57 1199.52 1867.87 1042.92 1761.47 968.32C1535.11 809.617 1251.58 894.68 1156.91 1146.48C1137.4 1198.4 1122.57 1236.97 1148.16 1286.27Z" id="Fill_2"/> <path d="M1429.16 1866.14C1290.49 1981.1 1410.51 2165.77 1550.25 2097.21C1728.24 2009.89 1542.56 1772.13 1429.16 1866.14Z" id="Fill_3"/> <path d="M258.258 2427.73C270.574 2433.01 443.057 2491.47 455.99 2469.76C481.241 2427.38 505.305 2384.14 525.858 2339.3C530.552 2329.06 543.225 2152.9 544.977 2165.56C548.223 2189 586.601 2342.43 609.579 2376.19C683.495 2484.78 738.576 2393.02 805.922 2324.99C874.233 2256 954.005 2269.49 942.682 2166.33C899.285 2170.21 858.256 2188.81 815.083 2194.68C743.89 2204.37 540.085 2189.59 545.44 2163.69C474.552 2140.3 464.894 2124.5 394.006 2101.11C350.882 2177.88 259.676 2422.76 258.258 2427.73Z" id="Fill_4"/> <path d="M94.8569 1193.74C198.122 1241.92 198.122 1241.92 301.387 1290.1C397.318 1055.48 397.318 1055.48 493.25 820.868C396.988 826.848 204.465 838.81 204.465 838.81C204.465 838.81 131.393 1075.43 94.8569 1193.74Z" id="Fill_5"/> <path d="M2517.82 1695.63C2644.49 1635.04 2797.36 1611.94 2897.84 1513.86C2951.87 1461.13 2933.23 1290.15 2933.23 1290.15C2933.23 1290.15 2687.3 1348.25 2608.57 1338.85C2563.2 1517.24 2563.2 1517.24 2517.82 1695.63Z" id="Fill_6"/> <path d="M1143.72 757.088C1123.45 634.278 1112.14 509.918 1105.73 385.613C1026.87 387.415 949.156 406.335 872.129 423.296C888.699 588.657 888.699 588.657 905.269 754.018C1024.5 755.553 1024.5 755.553 1143.72 757.088Z" id="Fill_7"/> <path d="M2309.41 2215.95C2235.06 2271.96 2185.68 2324.73 2101.26 2372.93C2129.48 2442.5 2195.89 2512.52 2255.53 2561.89C2282.92 2584.55 2479.76 2521.32 2486.63 2485.33C2497.39 2428.99 2441.79 2379.09 2410.5 2331.03C2382.65 2288.24 2348.57 2248.71 2309.41 2215.95Z" id="Fill_8"/> <path d="M2830.2 1115.29C2618.58 1092.04 2618.58 1092.04 2406.95 1068.79C2397.55 1164.35 2397.55 1164.35 2388.14 1259.91C2598.25 1280.87 2598.25 1280.87 2808.35 1301.83C2829.42 1242.88 2827.35 1177.84 2830.2 1115.29Z" id="Fill_9"/> <path d="M2169.05 126.162C2075.13 134.629 2075.13 134.629 1981.2 143.096C1975.03 264.501 1962.44 385.616 1946.46 506.123C2009.97 516.778 2074.46 531.515 2138.62 526.019C2158.06 412.154 2216.95 237.317 2169.05 126.162Z" id="Fill_10"/> <path d="M1548.07 460.755C1615.71 463.696 1685.46 465.727 1749.39 479.186C1784.14 486.501 1845.29 525.993 1882.66 516.048C1893.41 513.188 1950.53 286.88 1912.43 284.952C1757.82 277.123 1636.25 274.03 1509.79 364.347C1520.39 394.033 1526.88 425.187 1548.07 460.755Z" id="Fill_11"/> <path d="M2613.92 748.583C2531.6 794.97 2531.6 794.97 2449.28 841.357C2471.39 937.668 2519.66 1001.6 2581.51 1080.55C2605.51 1111.18 2657.42 1100.72 2696.33 1101.69C2745.89 1102.94 2795.39 1097.4 2844.91 1095.26C2758.98 986.183 2675.6 872.993 2613.92 748.583Z" id="Fill_12"/> <path d="M1047.72 2571.75C1087.42 2627.65 1151.78 2779.35 1190.79 2835.52C1245.47 2774.54 1295.61 2691.57 1373.49 2647.83C1428.93 2616.7 1516.82 2605.73 1568.19 2573.23C1568.19 2448.8 1385.95 2398.3 1344.01 2427.91C1317.71 2446.48 1279.44 2518.64 1250.26 2533.93C1224.3 2547.53 1180.45 2554.1 1155.51 2552.4C1125.28 2550.33 1060.43 2555.86 1047.72 2571.75Z" id="Fill_13"/> <path d="M2066.97 2442.79L1856.47 2463.16C1856.47 2463.16 2055.46 2759.19 2106.26 2748.96C2155.93 2738.96 2185.3 2685.44 2222.74 2651.29C2289.06 2590.78 2229.91 2592.52 2175.28 2544.12C2126.45 2500.88 2066.97 2442.79 2066.97 2442.79Z" id="Fill_14"/> <path d="M63.666 2264.15C130.591 2261.31 199.411 2271.7 264.441 2255.63C296.25 2247.78 335.542 2121.9 348.637 2088.35C248.051 2057.64 248.051 2057.64 147.464 2026.93C113.743 2103.72 75.572 2181.14 63.666 2264.15Z" id="Fill_15"/> <path d="M581.306 2547.75C494.113 2586.03 494.113 2586.03 406.921 2624.31C556.495 2749.07 556.495 2749.07 706.07 2873.84C764.693 2767.14 764.693 2767.14 823.317 2660.45C756.691 2684.5 570.651 2585.44 581.306 2547.75Z" id="Fill_16"/> <path d="M538.376 1880.76C536.757 1885.84 453.628 2054.73 454.97 2058.58C459.264 2070.89 642.664 2133.65 667.635 2135.14C674.413 2004.76 678.007 2031.04 603.392 1941.66C578.03 1911.27 574.928 1888.63 538.376 1880.76Z" id="Fill_17"/> <path d="M2776.06 1696.22C2853.93 1725.7 2853.93 1725.7 2931.81 1755.18C2932.52 1646.72 2932.52 1646.72 2933.23 1538.26C2890.33 1561.78 2776.06 1480.84 2776.06 1480.84C2744.87 1500.1 2789.43 1630.55 2776.06 1696.22Z" id="Fill_18"/> <path d="M2302.32 935.707C2390.03 1037.67 2379.41 1046.11 2513.57 1027.86C2499.28 976.091 2474.46 935.971 2452.17 885.025C2406.86 781.408 2419.25 832.25 2357.78 892.156C2340.95 908.56 2318.3 918.471 2302.32 935.707Z" id="Fill_19"/> <path d="M1739.47 2598.75C1746.36 2625.01 1823.67 2826.7 1823.67 2826.7C1823.67 2826.7 1936.75 2676.22 1952.13 2655.46C1965.6 2637.29 1909.87 2509.57 1909.87 2509.57C1909.87 2509.57 1864.33 2521.33 1810.06 2549.64C1785.67 2562.36 1732.31 2571.46 1739.47 2598.75Z" id="Fill_20"/> <path d="M1244.4 2507.74C1244.4 2507.74 1031.03 2360.05 1018.91 2360.03C831.573 2359.72 429.152 2533.49 429.152 2533.49L765.461 2655.46L1244.4 2507.74Z" id="Fill_21"/> <path d="M986.979 2391.89C1093.33 2349.42 1093.33 2349.42 1199.69 2306.96C1188.64 2187.7 1140.95 2103.13 1079.36 1998.34C1055.47 1957.67 991.419 1961.88 944.841 1954.45C885.507 1944.98 825.157 1943.65 765.315 1938.25C850.983 2083.12 932.916 2232.51 986.979 2391.89Z" id="Fill_22"/> <path d="M2083.43 818.471C2171.04 730.051 2265.15 647.981 2362.09 569.906C2314.41 507.083 2253.52 455.215 2194.62 402.758C2070.37 513.128 2070.37 513.128 1946.12 623.497C2014.78 720.984 2014.78 720.984 2083.43 818.471Z" id="Fill_23"/> </defs> <g id="Layer-1"> <path d="M0 0L3000 0L3000 3000L0 3000L0 0Z" fill="#db7e21" fill-rule="nonzero" opacity="1" stroke="none"/> <g opacity="1"> <g opacity="1"> <use fill="#ffd335" fill-rule="nonzero" stroke="none" xlink:href="#Fill"/> <mask height="2151.38" id="StrokeMask" maskUnits="userSpaceOnUse" width="2115.44" x="442.28" y="424.311"> <rect fill="#ffffff" height="2151.38" stroke="none" width="2115.44" x="442.28" y="424.311"/> <use fill="#000000" fill-rule="evenodd" stroke="none" xlink:href="#Fill"/> </mask> <use fill="none" mask="url(#StrokeMask)" stroke="#ffffff" stroke-linecap="round" stroke-linejoin="round" stroke-width="230" xlink:href="#Fill"/> </g> <g opacity="1"> <g opacity="1"> <use fill="#000000" fill-rule="nonzero" stroke="none" xlink:href="#Fill_2"/> <mask height="943.11" id="StrokeMask_2" maskUnits="userSpaceOnUse" width="800.931" x="1099.53" y="852.942"> <rect fill="#ffffff" height="943.11" stroke="none" width="800.931" x="1099.53" y="852.942"/> <use fill="#000000" fill-rule="evenodd" stroke="none" xlink:href="#Fill_2"/> </mask> <use fill="none" mask="url(#StrokeMask_2)" stroke="#f8f8f7" stroke-linecap="round" stroke-linejoin="round" stroke-width="70" xlink:href="#Fill_2"/> </g> <g opacity="1"> <use fill="#000000" fill-rule="nonzero" stroke="none" xlink:href="#Fill_3"/> <mask height="337.542" id="StrokeMask_3" maskUnits="userSpaceOnUse" width="326.37" x="1332.65" y="1809.52"> <rect fill="#ffffff" height="337.542" stroke="none" width="326.37" x="1332.65" y="1809.52"/> <use fill="#000000" fill-rule="evenodd" stroke="none" xlink:href="#Fill_3"/> </mask> <use fill="none" mask="url(#StrokeMask_3)" stroke="#f8f8f7" stroke-linecap="round" stroke-linejoin="round" stroke-width="70" xlink:href="#Fill_3"/> </g> </g> </g> <g opacity="1"> <g opacity="1"> <use fill="#dee2e0" fill-rule="nonzero" stroke="none" xlink:href="#Fill_4"/> <mask height="428.657" id="StrokeMask_4" maskUnits="userSpaceOnUse" width="740.59" x="228.173" y="2070.92"> <rect fill="#ffffff" height="428.657" stroke="none" width="740.59" x="228.173" y="2070.92"/> <use fill="#000000" fill-rule="evenodd" stroke="none" xlink:href="#Fill_4"/> </mask> <use fill="none" mask="url(#StrokeMask_4)" stroke="#303030" stroke-linecap="square" stroke-linejoin="miter" stroke-width="50" xlink:href="#Fill_4"/> </g> <g opacity="1"> <use fill="#f8f8f7" fill-rule="nonzero" stroke="none" xlink:href="#Fill_5"/> <mask height="530.408" id="StrokeMask_5" maskUnits="userSpaceOnUse" width="466.931" x="64.5407" y="793.445"> <rect fill="#ffffff" height="530.408" stroke="none" width="466.931" x="64.5407" y="793.445"/> <use fill="#000000" fill-rule="evenodd" stroke="none" xlink:href="#Fill_5"/> </mask> <use fill="none" mask="url(#StrokeMask_5)" stroke="#303030" stroke-linecap="square" stroke-linejoin="miter" stroke-width="50" xlink:href="#Fill_5"/> </g> <g opacity="1"> <use fill="#dee2e0" fill-rule="nonzero" stroke="none" xlink:href="#Fill_6"/> <mask height="481.915" id="StrokeMask_6" maskUnits="userSpaceOnUse" width="480.907" x="2480.43" y="1259.31"> <rect fill="#ffffff" height="481.915" stroke="none" width="480.907" x="2480.43" y="1259.31"/> <use fill="#000000" fill-rule="evenodd" stroke="none" xlink:href="#Fill_6"/> </mask> <use fill="none" mask="url(#StrokeMask_6)" stroke="#303030" stroke-linecap="square" stroke-linejoin="miter" stroke-width="50" xlink:href="#Fill_6"/> </g> <g opacity="1"> <use fill="#f8f8f7" fill-rule="nonzero" stroke="none" xlink:href="#Fill_7"/> <mask height="422.405" id="StrokeMask_7" maskUnits="userSpaceOnUse" width="328.212" x="845.037" y="360.065"> <rect fill="#ffffff" height="422.405" stroke="none" width="328.212" x="845.037" y="360.065"/> <use fill="#000000" fill-rule="evenodd" stroke="none" xlink:href="#Fill_7"/> </mask> <use fill="none" mask="url(#StrokeMask_7)" stroke="#303030" stroke-linecap="square" stroke-linejoin="miter" stroke-width="50" xlink:href="#Fill_7"/> </g> <g opacity="1"> <use fill="#f8f8f7" fill-rule="nonzero" stroke="none" xlink:href="#Fill_8"/> <mask height="407.635" id="StrokeMask_8" maskUnits="userSpaceOnUse" width="443.123" x="2069.87" y="2184.04"> <rect fill="#ffffff" height="407.635" stroke="none" width="443.123" x="2069.87" y="2184.04"/> <use fill="#000000" fill-rule="evenodd" stroke="none" xlink:href="#Fill_8"/> </mask> <use fill="none" mask="url(#StrokeMask_8)" stroke="#303030" stroke-linecap="square" stroke-linejoin="miter" stroke-width="50" xlink:href="#Fill_8"/> </g> <g opacity="1"> <use fill="#f8f8f7" fill-rule="nonzero" stroke="none" xlink:href="#Fill_9"/> <mask height="287.472" id="StrokeMask_9" maskUnits="userSpaceOnUse" width="495.429" x="2360.82" y="1041.18"> <rect fill="#ffffff" height="287.472" stroke="none" width="495.429" x="2360.82" y="1041.18"/> <use fill="#000000" fill-rule="evenodd" stroke="none" xlink:href="#Fill_9"/> </mask> <use fill="none" mask="url(#StrokeMask_9)" stroke="#303030" stroke-linecap="square" stroke-linejoin="miter" stroke-width="50" xlink:href="#Fill_9"/> </g> <g opacity="1"> <use fill="#dee2e0" fill-rule="nonzero" stroke="none" xlink:href="#Fill_10"/> <mask height="452.572" id="StrokeMask_10" maskUnits="userSpaceOnUse" width="293.88" x="1918.5" y="99.6366"> <rect fill="#ffffff" height="452.572" stroke="none" width="293.88" x="1918.5" y="99.6366"/> <use fill="#000000" fill-rule="evenodd" stroke="none" xlink:href="#Fill_10"/> </mask> <use fill="none" mask="url(#StrokeMask_10)" stroke="#303030" stroke-linecap="square" stroke-linejoin="miter" stroke-width="50" xlink:href="#Fill_10"/> </g> <g opacity="1"> <use fill="#f8f8f7" fill-rule="nonzero" stroke="none" xlink:href="#Fill_11"/> <mask height="286.29" id="StrokeMask_11" maskUnits="userSpaceOnUse" width="470.474" x="1479.9" y="256.353"> <rect fill="#ffffff" height="286.29" stroke="none" width="470.474" x="1479.9" y="256.353"/> <use fill="#000000" fill-rule="evenodd" stroke="none" xlink:href="#Fill_11"/> </mask> <use fill="none" mask="url(#StrokeMask_11)" stroke="#303030" stroke-linecap="square" stroke-linejoin="miter" stroke-width="50" xlink:href="#Fill_11"/> </g> <g opacity="1"> <use fill="#f8f8f7" fill-rule="nonzero" stroke="none" xlink:href="#Fill_12"/> <mask height="413.794" id="StrokeMask_12" maskUnits="userSpaceOnUse" width="474.017" x="2420.74" y="713.863"> <rect fill="#ffffff" height="413.794" stroke="none" width="474.017" x="2420.74" y="713.863"/> <use fill="#000000" fill-rule="evenodd" stroke="none" xlink:href="#Fill_12"/> </mask> <use fill="none" mask="url(#StrokeMask_12)" stroke="#303030" stroke-linecap="square" stroke-linejoin="miter" stroke-width="50" xlink:href="#Fill_12"/> </g> <g opacity="1"> <use fill="#dee2e0" fill-rule="nonzero" stroke="none" xlink:href="#Fill_13"/> <mask height="481.083" id="StrokeMask_13" maskUnits="userSpaceOnUse" width="576.767" x="1016.42" y="2394.66"> <rect fill="#ffffff" height="481.083" stroke="none" width="576.767" x="1016.42" y="2394.66"/> <use fill="#000000" fill-rule="evenodd" stroke="none" xlink:href="#Fill_13"/> </mask> <use fill="none" mask="url(#StrokeMask_13)" stroke="#303030" stroke-linecap="square" stroke-linejoin="miter" stroke-width="50" xlink:href="#Fill_13"/> </g> <g opacity="1"> <use fill="#f8f8f7" fill-rule="nonzero" stroke="none" xlink:href="#Fill_14"/> <mask height="357.427" id="StrokeMask_14" maskUnits="userSpaceOnUse" width="464.797" x="1812.33" y="2416.79"> <rect fill="#ffffff" height="357.427" stroke="none" width="464.797" x="1812.33" y="2416.79"/> <use fill="#000000" fill-rule="evenodd" stroke="none" xlink:href="#Fill_14"/> </mask> <use fill="none" mask="url(#StrokeMask_14)" stroke="#303030" stroke-linecap="square" stroke-linejoin="miter" stroke-width="50" xlink:href="#Fill_14"/> </g> <g opacity="1"> <use fill="#f8f8f7" fill-rule="nonzero" stroke="none" xlink:href="#Fill_15"/> <mask height="293.876" id="StrokeMask_15" maskUnits="userSpaceOnUse" width="347.088" x="34.6447" y="1996.53"> <rect fill="#ffffff" height="293.876" stroke="none" width="347.088" x="34.6447" y="1996.53"/> <use fill="#000000" fill-rule="evenodd" stroke="none" xlink:href="#Fill_15"/> </mask> <use fill="none" mask="url(#StrokeMask_15)" stroke="#303030" stroke-linecap="square" stroke-linejoin="miter" stroke-width="50" xlink:href="#Fill_15"/> </g> <g opacity="1"> <use fill="#dee2e0" fill-rule="nonzero" stroke="none" xlink:href="#Fill_16"/> <mask height="408.922" id="StrokeMask_16" maskUnits="userSpaceOnUse" width="517.213" x="359.904" y="2503.56"> <rect fill="#ffffff" height="408.922" stroke="none" width="517.213" x="359.904" y="2503.56"/> <use fill="#000000" fill-rule="evenodd" stroke="none" xlink:href="#Fill_16"/> </mask> <use fill="none" mask="url(#StrokeMask_16)" stroke="#303030" stroke-linecap="square" stroke-linejoin="miter" stroke-width="50" xlink:href="#Fill_16"/> </g> <g opacity="1"> <use fill="#f8f8f7" fill-rule="nonzero" stroke="none" xlink:href="#Fill_17"/> <mask height="310.044" id="StrokeMask_17" maskUnits="userSpaceOnUse" width="266.004" x="429.954" y="1851.55"> <rect fill="#ffffff" height="310.044" stroke="none" width="266.004" x="429.954" y="1851.55"/> <use fill="#000000" fill-rule="evenodd" stroke="none" xlink:href="#Fill_17"/> </mask> <use fill="none" mask="url(#StrokeMask_17)" stroke="#303030" stroke-linecap="square" stroke-linejoin="miter" stroke-width="50" xlink:href="#Fill_17"/> </g> <g opacity="1"> <use fill="#f8f8f7" fill-rule="nonzero" stroke="none" xlink:href="#Fill_18"/> <mask height="340.411" id="StrokeMask_18" maskUnits="userSpaceOnUse" width="218.773" x="2739.73" y="1450.87"> <rect fill="#ffffff" height="340.411" stroke="none" width="218.773" x="2739.73" y="1450.87"/> <use fill="#000000" fill-rule="evenodd" stroke="none" xlink:href="#Fill_18"/> </mask> <use fill="none" mask="url(#StrokeMask_18)" stroke="#303030" stroke-linecap="square" stroke-linejoin="miter" stroke-width="50" xlink:href="#Fill_18"/> </g> <g opacity="1"> <use fill="#dee2e0" fill-rule="nonzero" stroke="none" xlink:href="#Fill_19"/> <mask height="260.077" id="StrokeMask_19" maskUnits="userSpaceOnUse" width="276.468" x="2268.81" y="800.433"> <rect fill="#ffffff" height="260.077" stroke="none" width="276.468" x="2268.81" y="800.433"/> <use fill="#000000" fill-rule="evenodd" stroke="none" xlink:href="#Fill_19"/> </mask> <use fill="none" mask="url(#StrokeMask_19)" stroke="#303030" stroke-linecap="square" stroke-linejoin="miter" stroke-width="50" xlink:href="#Fill_19"/> </g> <g opacity="1"> <use fill="#dee2e0" fill-rule="nonzero" stroke="none" xlink:href="#Fill_20"/> <mask height="397.817" id="StrokeMask_20" maskUnits="userSpaceOnUse" width="265.419" x="1713.81" y="2480.04"> <rect fill="#ffffff" height="397.817" stroke="none" width="265.419" x="1713.81" y="2480.04"/> <use fill="#000000" fill-rule="evenodd" stroke="none" xlink:href="#Fill_20"/> </mask> <use fill="none" mask="url(#StrokeMask_20)" stroke="#303030" stroke-linecap="square" stroke-linejoin="miter" stroke-width="50" xlink:href="#Fill_20"/> </g> <g opacity="1"> <use fill="#f8f8f7" fill-rule="nonzero" stroke="none" xlink:href="#Fill_21"/> <mask height="346.791" id="StrokeMask_21" maskUnits="userSpaceOnUse" width="939.531" x="361.404" y="2335.03"> <rect fill="#ffffff" height="346.791" stroke="none" width="939.531" x="361.404" y="2335.03"/> <use fill="#000000" fill-rule="evenodd" stroke="none" xlink:href="#Fill_21"/> </mask> <use fill="none" mask="url(#StrokeMask_21)" stroke="#303030" stroke-linecap="square" stroke-linejoin="miter" stroke-width="50" xlink:href="#Fill_21"/> </g> <g opacity="1"> <use fill="#f8f8f7" fill-rule="nonzero" stroke="none" xlink:href="#Fill_22"/> <mask height="515.915" id="StrokeMask_22" maskUnits="userSpaceOnUse" width="507.352" x="718.953" y="1908.97"> <rect fill="#ffffff" height="515.915" stroke="none" width="507.352" x="718.953" y="1908.97"/> <use fill="#000000" fill-rule="evenodd" stroke="none" xlink:href="#Fill_22"/> </mask> <use fill="none" mask="url(#StrokeMask_22)" stroke="#303030" stroke-linecap="square" stroke-linejoin="miter" stroke-width="50" xlink:href="#Fill_22"/> </g> <g opacity="1"> <use fill="#f8f8f7" fill-rule="nonzero" stroke="none" xlink:href="#Fill_23"/> <mask height="487.972" id="StrokeMask_23" maskUnits="userSpaceOnUse" width="483.869" x="1912.83" y="369.3"> <rect fill="#ffffff" height="487.972" stroke="none" width="483.869" x="1912.83" y="369.3"/> <use fill="#000000" fill-rule="evenodd" stroke="none" xlink:href="#Fill_23"/> </mask> <use fill="none" mask="url(#StrokeMask_23)" stroke="#303030" stroke-linecap="square" stroke-linejoin="miter" stroke-width="50" xlink:href="#Fill_23"/> </g> </g> </g> </svg>